<?xml version="1.0" encoding="UTF-8" standalone="no"?>
<!DOCTYPE svg PUBLIC "-//W3C//DTD SVG 1.1//EN" "http://www.w3.org/Graphics/SVG/1.1/DTD/svg11.dtd">
<svg xmlns="http://www.w3.org/2000/svg" version="1.1" viewBox="0.00 0.00 1024.00 1024.00">
<g stroke-width="1.60" fill="none" stroke-linecap="butt">
<path stroke="#797f80" vector-effect="non-scaling-stroke" d="
  M 492.33 455.55
  Q 492.12 376.27 492.22 297.00
  Q 492.24 279.69 475.38 276.51
  Q 473.22 276.10 471.00 276.10
  Q 366.73 276.05 262.45 276.11
  Q 254.20 276.12 252.56 276.35
  C 244.69 277.47 237.92 283.34 236.20 291.07
  Q 235.66 293.51 235.66 303.47
  Q 235.75 501.49 235.72 699.41
  A 1.29 1.28 90.0 0 0 237.00 700.70
  Q 322.63 700.68 408.50 700.76
  Q 420.42 700.77 425.75 690.40
  C 426.87 688.23 427.75 686.59 427.75 684.50
  Q 427.85 599.70 427.92 514.06
  Q 427.92 513.71 428.27 513.72
  L 473.75 513.76
  Q 474.32 513.76 474.32 514.32
  Q 474.18 595.91 474.29 677.50
  Q 474.30 683.97 474.75 686.02
  C 477.26 697.53 486.09 700.71 496.75 700.74
  Q 527.25 700.82 557.60 700.66
  Q 558.75 700.65 558.75 699.50
  L 558.77 596.69
  Q 558.77 596.15 559.31 596.15
  L 784.95 596.18
  A 0.64 0.63 -0.0 0 0 785.59 595.55
  L 785.60 234.45
  A 0.68 0.68 0.0 0 0 785.15 233.81
  C 782.79 232.95 780.81 233.23 778.39 233.23
  Q 660.83 233.25 542.67 233.24
  Q 540.19 233.24 540.19 235.72
  L 540.10 455.22
  Q 540.10 456.04 539.28 456.04
  L 492.80 456.02
  Q 492.33 456.02 492.33 455.55"
/>
<path stroke="#797f80" vector-effect="non-scaling-stroke" d="
  M 484.3833 264.2843
  A 8.55 8.39 87.9 0 0 492.4544 255.4326
  A 8.55 8.39 87.9 0 0 483.7567 247.1957
  A 8.55 8.39 87.9 0 0 475.6856 256.0474
  A 8.55 8.39 87.9 0 0 484.3833 264.2843"
/>
<path stroke="#797f80" vector-effect="non-scaling-stroke" d="
  M 523.7026 254.4357
  A 6.96 6.96 0.0 0 0 516.7669 247.4514
  L 516.0869 247.4491
  A 6.96 6.96 0.0 0 0 509.1027 254.3847
  L 508.8774 318.9243
  A 6.96 6.96 0.0 0 0 515.8131 325.9086
  L 516.4931 325.9109
  A 6.96 6.96 0.0 0 0 523.4773 318.9753
  L 523.7026 254.4357"
/>
<path stroke="#797f80" vector-effect="non-scaling-stroke" d="
  M 523.7153 346.9127
  A 6.92 6.92 0.0 0 0 516.8074 339.9807
  L 516.1274 339.9795
  A 6.92 6.92 0.0 0 0 509.1953 346.8874
  L 509.0847 410.2473
  A 6.92 6.92 0.0 0 0 515.9926 417.1793
  L 516.6726 417.1805
  A 6.92 6.92 0.0 0 0 523.6047 410.2726
  L 523.7153 346.9127"
/>
<path stroke="#797f80" vector-effect="non-scaling-stroke" d="
  M 458.8100 621.0131
  A 7.28 7.28 0.0 0 0 451.5427 613.7204
  L 451.1227 613.7197
  A 7.28 7.28 0.0 0 0 443.8301 620.9870
  L 443.6900 701.2469
  A 7.28 7.28 0.0 0 0 450.9573 708.5396
  L 451.3773 708.5403
  A 7.28 7.28 0.0 0 0 458.6699 701.2730
  L 458.8100 621.0131"
/>
<path stroke="#797f80" vector-effect="non-scaling-stroke" d="
  M 662.14 621.38
  A 6.69 6.69 0.0 0 0 655.45 614.69
  L 581.53 614.69
  A 6.69 6.69 0.0 0 0 574.84 621.38
  L 574.84 623.44
  A 6.69 6.69 0.0 0 0 581.53 630.13
  L 655.45 630.13
  A 6.69 6.69 0.0 0 0 662.14 623.44
  L 662.14 621.38"
/>
<path stroke="#797f80" vector-effect="non-scaling-stroke" d="
  M 734.4569 621.5084
  A 6.92 6.92 0.0 0 0 727.5128 614.6126
  L 683.1130 614.7675
  A 6.92 6.92 0.0 0 0 676.2172 621.7117
  L 676.2231 623.3916
  A 6.92 6.92 0.0 0 0 683.1672 630.2874
  L 727.5670 630.1325
  A 6.92 6.92 0.0 0 0 734.4628 623.1883
  L 734.4569 621.5084"
/>
<path stroke="#797f80" vector-effect="non-scaling-stroke" d="
  M 809.6351 621.4125
  A 6.85 6.85 0.0 0 0 802.7494 614.5984
  L 756.2700 614.8418
  A 6.85 6.85 0.0 0 0 749.4560 621.7276
  L 749.4649 623.4275
  A 6.85 6.85 0.0 0 0 756.3506 630.2416
  L 802.8300 629.9982
  A 6.85 6.85 0.0 0 0 809.6440 623.1124
  L 809.6351 621.4125"
/>
<path stroke="#797f80" vector-effect="non-scaling-stroke" d="
  M 701.54 654.56
  A 6.89 6.89 0.0 0 0 694.65 647.67
  L 581.99 647.67
  A 6.89 6.89 0.0 0 0 575.10 654.56
  L 575.10 656.72
  A 6.89 6.89 0.0 0 0 581.99 663.61
  L 694.65 663.61
  A 6.89 6.89 0.0 0 0 701.54 656.72
  L 701.54 654.56"
/>
<path stroke="#797f80" vector-effect="non-scaling-stroke" d="
  M 788.7081 654.5472
  A 6.96 6.96 0.0 0 0 781.7359 647.5993
  L 723.6760 647.7007
  A 6.96 6.96 0.0 0 0 716.7282 654.6728
  L 716.7319 656.8128
  A 6.96 6.96 0.0 0 0 723.7041 663.7607
  L 781.7640 663.6593
  A 6.96 6.96 0.0 0 0 788.7118 656.6872
  L 788.7081 654.5472"
/>
<path stroke="#797f80" vector-effect="non-scaling-stroke" d="
  M 663.8612 689.2479
  A 7.41 7.41 0.0 0 0 656.4642 681.8250
  L 582.0243 681.6951
  A 7.41 7.41 0.0 0 0 574.6014 689.0921
  L 574.5988 690.5921
  A 7.41 7.41 0.0 0 0 581.9958 698.0150
  L 656.4357 698.1449
  A 7.41 7.41 0.0 0 0 663.8586 690.7479
  L 663.8612 689.2479"
/>
<path stroke="#797f80" vector-effect="non-scaling-stroke" d="
  M 562.91 745.84
  L 562.85 774.34
  Q 562.85 774.78 562.41 774.78
  L 299.25 774.74
  Q 298.72 774.74 298.73 775.25
  L 298.82 793.42
  Q 298.83 793.95 299.35 793.95
  C 435.75 794.51 558.37 793.98 735.92 794.05
  C 739.86 794.05 742.64 793.51 745.98 791.97
  Q 781.08 775.82 815.80 759.35
  A 0.79 0.79 0.0 0 0 815.80 757.92
  Q 780.19 741.20 744.00 726.19
  C 738.27 723.81 733.06 724.42 727.00 724.41
  Q 521.00 724.35 315.00 724.26
  Q 292.13 724.25 269.25 724.62
  Q 257.84 724.81 249.79 730.56
  C 222.10 750.36 234.91 793.85 269.75 794.14
  Q 276.13 794.20 282.35 794.05
  A 0.84 0.83 89.3 0 0 283.16 793.21
  L 283.25 740.46
  A 0.56 0.56 0.0 0 1 283.80 739.90
  L 298.29 739.83
  Q 298.75 739.83 298.77 740.29
  L 299.02 744.54
  A 1.01 1.01 0.0 0 0 300.03 745.49
  L 562.59 745.51
  Q 562.91 745.51 562.91 745.84"
/>
<path stroke="#797f80" vector-effect="non-scaling-stroke" d="
  M 767.15 252.39
  A 0.38 0.38 0.0 0 0 766.77 252.01
  L 559.17 252.01
  A 0.38 0.38 0.0 0 0 558.79 252.39
  L 558.79 576.91
  A 0.38 0.38 0.0 0 0 559.17 577.29
  L 766.77 577.29
  A 0.38 0.38 0.0 0 0 767.15 576.91
  L 767.15 252.39"
/>
<path stroke="#797f80" vector-effect="non-scaling-stroke" d="
  M 329.11 307.52
  C 326.26 305.42 326.92 298.58 326.99 295.39
  Q 327.00 294.93 326.54 294.93
  L 255.02 294.99
  A 0.74 0.74 0.0 0 0 254.29 295.73
  L 254.12 342.45
  A 0.33 0.33 0.0 0 0 254.45 342.78
  L 409.69 342.80
  A 0.30 0.30 0.0 0 0 409.99 342.50
  L 409.95 295.60
  A 0.60 0.60 0.0 0 0 409.35 295.00
  L 346.20 294.93
  Q 345.76 294.93 345.77 295.37
  C 345.87 298.62 347.25 307.28 342.44 307.89
  Q 336.53 308.63 330.68 308.11
  A 3.04 3.04 0.0 0 1 329.11 307.52"
/>
<path stroke="#797f80" vector-effect="non-scaling-stroke" d="
  M 457.91 365.93
  C 454.24 372.58 443.87 371.22 443.85 363.25
  Q 443.77 329.54 443.86 295.80
  Q 443.87 295.24 443.31 295.23
  L 428.31 294.91
  A 0.52 0.52 0.0 0 0 427.78 295.43
  L 427.82 455.67
  A 0.36 0.35 90.0 0 0 428.17 456.03
  L 474.05 456.01
  Q 474.36 456.01 474.36 455.70
  L 474.21 295.70
  Q 474.21 295.18 473.70 295.18
  L 459.27 294.96
  Q 458.64 294.95 458.64 295.58
  Q 458.80 326.85 458.64 358.06
  C 458.63 360.22 458.84 364.25 457.91 365.93"
/>
<path stroke="#797f80" vector-effect="non-scaling-stroke" d="
  M 409.96 361.38
  A 0.39 0.39 0.0 0 0 409.57 360.99
  L 254.53 360.99
  A 0.39 0.39 0.0 0 0 254.14 361.38
  L 254.14 381.24
  A 0.39 0.39 0.0 0 0 254.53 381.63
  L 409.57 381.63
  A 0.39 0.39 0.0 0 0 409.96 381.24
  L 409.96 361.38"
/>
<path stroke="#797f80" vector-effect="non-scaling-stroke" d="
  M 327.01 400.84
  A 0.27 0.27 0.0 0 0 326.74 400.57
  L 254.48 400.57
  A 0.27 0.27 0.0 0 0 254.21 400.84
  L 254.21 455.74
  A 0.27 0.27 0.0 0 0 254.48 456.01
  L 326.74 456.01
  A 0.27 0.27 0.0 0 0 327.01 455.74
  L 327.01 400.84"
/>
<path stroke="#797f80" vector-effect="non-scaling-stroke" d="
  M 409.98 400.81
  A 0.26 0.26 0.0 0 0 409.72 400.55
  L 346.16 400.55
  A 0.26 0.26 0.0 0 0 345.90 400.81
  L 345.90 455.75
  A 0.26 0.26 0.0 0 0 346.16 456.01
  L 409.72 456.01
  A 0.26 0.26 0.0 0 0 409.98 455.75
  L 409.98 400.81"
/>
<path stroke="#797f80" vector-effect="non-scaling-stroke" d="
  M 254.64 474.44
  A 0.32 0.32 0.0 0 0 254.32 474.75
  L 253.83 494.56
  A 0.32 0.32 0.0 0 0 254.15 494.89
  L 409.73 494.81
  A 0.32 0.32 0.0 0 0 410.05 494.49
  L 409.96 474.81
  A 0.32 0.32 0.0 0 0 409.64 474.49
  L 254.64 474.44"
/>
<path stroke="#797f80" vector-effect="non-scaling-stroke" d="
  M 474.4373 474.7406
  A 0.36 0.36 0.0 0 0 474.0779 474.3800
  L 428.2380 474.3000
  A 0.36 0.36 0.0 0 0 427.8774 474.6594
  L 427.8427 494.5394
  A 0.36 0.36 0.0 0 0 428.2021 494.9000
  L 474.0420 494.9800
  A 0.36 0.36 0.0 0 0 474.4026 494.6206
  L 474.4373 474.7406"
/>
<path stroke="#797f80" vector-effect="non-scaling-stroke" d="
  M 540.1074 474.7017
  A 0.27 0.27 0.0 0 0 539.8379 474.4312
  L 492.6180 474.3488
  A 0.27 0.27 0.0 0 0 492.3475 474.6183
  L 492.3126 494.6183
  A 0.27 0.27 0.0 0 0 492.5821 494.8888
  L 539.8020 494.9712
  A 0.27 0.27 0.0 0 0 540.0725 494.7017
  L 540.1074 474.7017"
/>
<path stroke="#797f80" vector-effect="non-scaling-stroke" d="
  M 409.95 514.01
  A 0.27 0.27 0.0 0 0 409.68 513.74
  L 346.16 513.74
  A 0.27 0.27 0.0 0 0 345.89 514.01
  L 345.89 562.15
  A 0.27 0.27 0.0 0 0 346.16 562.42
  L 409.68 562.42
  A 0.27 0.27 0.0 0 0 409.95 562.15
  L 409.95 514.01"
/>
<path stroke="#797f80" vector-effect="non-scaling-stroke" d="
  M 540.09 514.00
  A 0.28 0.28 0.0 0 0 539.81 513.72
  L 492.61 513.72
  A 0.28 0.28 0.0 0 0 492.33 514.00
  L 492.33 681.96
  A 0.28 0.28 0.0 0 0 492.61 682.24
  L 539.81 682.24
  A 0.28 0.28 0.0 0 0 540.09 681.96
  L 540.09 514.00"
/>
<path stroke="#797f80" vector-effect="non-scaling-stroke" d="
  M 327.05 514.03
  A 0.27 0.27 0.0 0 0 326.78 513.76
  L 254.48 513.76
  A 0.27 0.27 0.0 0 0 254.21 514.03
  L 254.21 562.15
  A 0.27 0.27 0.0 0 0 254.48 562.42
  L 326.78 562.42
  A 0.27 0.27 0.0 0 0 327.05 562.15
  L 327.05 514.03"
/>
<path stroke="#797f80" vector-effect="non-scaling-stroke" d="
  M 409.93 581.21
  A 0.26 0.26 0.0 0 0 409.67 580.95
  L 254.43 580.95
  A 0.26 0.26 0.0 0 0 254.17 581.21
  L 254.17 600.95
  A 0.26 0.26 0.0 0 0 254.43 601.21
  L 409.67 601.21
  A 0.26 0.26 0.0 0 0 409.93 600.95
  L 409.93 581.21"
/>
<path stroke="#797f80" vector-effect="non-scaling-stroke" d="
  M 327.1143 619.7936
  A 0.26 0.26 0.0 0 0 326.8547 619.5332
  L 254.5148 619.4069
  A 0.26 0.26 0.0 0 0 254.2544 619.6665
  L 254.1457 681.9064
  A 0.26 0.26 0.0 0 0 254.4053 682.1668
  L 326.7452 682.2931
  A 0.26 0.26 0.0 0 0 327.0056 682.0335
  L 327.1143 619.7936"
/>
<path stroke="#797f80" vector-effect="non-scaling-stroke" d="
  M 409.96 619.78
  A 0.31 0.31 0.0 0 0 409.65 619.47
  L 346.27 619.47
  A 0.31 0.31 0.0 0 0 345.96 619.78
  L 345.96 681.90
  A 0.31 0.31 0.0 0 0 346.27 682.21
  L 409.65 682.21
  A 0.31 0.31 0.0 0 0 409.96 681.90
  L 409.96 619.78"
/>
<path stroke="#797f80" vector-effect="non-scaling-stroke" d="
  M 704.80 271.40
  A 0.84 0.84 0.0 0 0 703.96 270.56
  L 578.68 270.56
  A 0.84 0.84 0.0 0 0 577.84 271.40
  L 577.84 288.60
  A 0.84 0.84 0.0 0 0 578.68 289.44
  L 703.96 289.44
  A 0.84 0.84 0.0 0 0 704.80 288.60
  L 704.80 271.40"
/>
<path stroke="#797f80" vector-effect="non-scaling-stroke" d="
  M 748.2450 271.3956
  A 0.91 0.91 0.0 0 0 747.3334 270.4872
  L 721.1535 270.5329
  A 0.91 0.91 0.0 0 0 720.2451 271.4444
  L 720.2750 288.5844
  A 0.91 0.91 0.0 0 0 721.1866 289.4928
  L 747.3665 289.4471
  A 0.91 0.91 0.0 0 0 748.2749 288.5356
  L 748.2450 271.3956"
/>
<path stroke="#797f80" vector-effect="non-scaling-stroke" d="
  M 748.13 308.09
  A 0.71 0.71 0.0 0 0 747.42 307.38
  L 578.94 307.38
  A 0.71 0.71 0.0 0 0 578.23 308.09
  L 578.23 366.45
  A 0.71 0.71 0.0 0 0 578.94 367.16
  L 747.42 367.16
  A 0.71 0.71 0.0 0 0 748.13 366.45
  L 748.13 308.09"
/>
<path stroke="#797f80" vector-effect="non-scaling-stroke" d="
  M 594.80 402.81
  A 0.27 0.27 0.0 0 0 594.53 402.54
  L 576.69 402.54
  A 0.27 0.27 0.0 0 0 576.42 402.81
  L 576.42 558.91
  A 0.27 0.27 0.0 0 0 576.69 559.18
  L 594.53 559.18
  A 0.27 0.27 0.0 0 0 594.80 558.91
  L 594.80 402.81"
/>
<path stroke="#797f80" vector-effect="non-scaling-stroke" d="
  M 633.0554 403.0782
  A 0.47 0.47 0.0 0 0 632.5862 402.6074
  L 612.7262 402.5727
  A 0.47 0.47 0.0 0 0 612.2554 403.0419
  L 612.2046 432.1218
  A 0.47 0.47 0.0 0 0 612.6738 432.5926
  L 632.5338 432.6273
  A 0.47 0.47 0.0 0 0 633.0046 432.1581
  L 633.0554 403.0782"
/>
<path stroke="#797f80" vector-effect="non-scaling-stroke" d="
  M 669.74 403.22
  A 0.57 0.57 0.0 0 0 669.17 402.64
  L 648.45 402.46
  A 0.57 0.57 0.0 0 0 647.87 403.03
  L 648.07 432.00
  A 0.57 0.57 0.0 0 0 648.64 432.57
  L 668.97 432.44
  A 0.57 0.57 0.0 0 0 669.53 431.88
  L 669.74 403.22"
/>
<path stroke="#797f80" vector-effect="non-scaling-stroke" d="
  M 707.87 403.20
  A 0.62 0.62 0.0 0 0 707.25 402.58
  L 686.41 402.58
  A 0.62 0.62 0.0 0 0 685.79 403.20
  L 685.79 431.86
  A 0.62 0.62 0.0 0 0 686.41 432.48
  L 707.25 432.48
  A 0.62 0.62 0.0 0 0 707.87 431.86
  L 707.87 403.20"
/>
<path stroke="#797f80" vector-effect="non-scaling-stroke" d="
  M 748.38 403.21
  A 0.67 0.67 0.0 0 0 747.71 402.54
  L 726.47 402.54
  A 0.67 0.67 0.0 0 0 725.80 403.21
  L 725.80 431.85
  A 0.67 0.67 0.0 0 0 726.47 432.52
  L 747.71 432.52
  A 0.67 0.67 0.0 0 0 748.38 431.85
  L 748.38 403.21"
/>
<path stroke="#797f80" vector-effect="non-scaling-stroke" d="
  M 633.10 448.91
  A 0.34 0.34 0.0 0 0 632.75 448.56
  L 612.48 448.68
  A 0.34 0.34 0.0 0 0 612.14 449.02
  L 612.28 471.88
  A 0.34 0.34 0.0 0 0 612.62 472.21
  L 632.44 471.91
  A 0.34 0.34 0.0 0 0 632.77 471.57
  L 633.10 448.91"
/>
<path stroke="#797f80" vector-effect="non-scaling-stroke" d="
  M 669.72 449.03
  A 0.43 0.43 0.0 0 0 669.29 448.60
  L 648.24 448.50
  A 0.43 0.43 0.0 0 0 647.81 448.93
  L 647.97 471.70
  A 0.43 0.43 0.0 0 0 648.40 472.13
  L 669.27 471.94
  A 0.43 0.43 0.0 0 0 669.70 471.51
  L 669.72 449.03"
/>
<path stroke="#797f80" vector-effect="non-scaling-stroke" d="
  M 707.95 449.06
  A 0.46 0.46 0.0 0 0 707.49 448.60
  L 686.27 448.60
  A 0.46 0.46 0.0 0 0 685.81 449.06
  L 685.81 471.56
  A 0.46 0.46 0.0 0 0 686.27 472.02
  L 707.49 472.02
  A 0.46 0.46 0.0 0 0 707.95 471.56
  L 707.95 449.06"
/>
<path stroke="#797f80" vector-effect="non-scaling-stroke" d="
  M 748.2694 449.2199
  A 0.63 0.63 0.0 0 0 747.6405 448.5888
  L 726.1605 448.5513
  A 0.63 0.63 0.0 0 0 725.5294 449.1802
  L 725.4906 471.4001
  A 0.63 0.63 0.0 0 0 726.1195 472.0312
  L 747.5995 472.0687
  A 0.63 0.63 0.0 0 0 748.2306 471.4398
  L 748.2694 449.2199"
/>
<path stroke="#797f80" vector-effect="non-scaling-stroke" d="
  M 632.9855 490.2119
  A 0.45 0.45 0.0 0 0 632.5347 489.7627
  L 612.6348 489.7974
  A 0.45 0.45 0.0 0 0 612.1855 490.2482
  L 612.2345 518.2881
  A 0.45 0.45 0.0 0 0 612.6853 518.7373
  L 632.5852 518.7026
  A 0.45 0.45 0.0 0 0 633.0345 518.2518
  L 632.9855 490.2119"
/>
<path stroke="#797f80" vector-effect="non-scaling-stroke" d="
  M 669.72 490.44
  A 0.53 0.53 0.0 0 0 669.19 489.91
  L 648.51 489.84
  A 0.53 0.53 0.0 0 0 647.97 490.38
  L 648.15 518.15
  A 0.53 0.53 0.0 0 0 648.68 518.68
  L 669.05 518.67
  A 0.53 0.53 0.0 0 0 669.58 518.14
  L 669.72 490.44"
/>
<path stroke="#797f80" vector-effect="non-scaling-stroke" d="
  M 708.00 490.41
  A 0.59 0.59 0.0 0 0 707.41 489.81
  L 686.36 489.97
  A 0.59 0.59 0.0 0 0 685.77 490.56
  L 685.77 518.04
  A 0.59 0.59 0.0 0 0 686.36 518.63
  L 707.06 518.67
  A 0.59 0.59 0.0 0 0 707.65 518.09
  L 708.00 490.41"
/>
<path stroke="#797f80" vector-effect="non-scaling-stroke" d="
  M 748.48 490.55
  A 0.75 0.75 0.0 0 0 747.73 489.80
  L 727.15 489.80
  A 0.75 0.75 0.0 0 0 726.40 490.55
  L 726.40 558.33
  A 0.75 0.75 0.0 0 0 727.15 559.08
  L 747.73 559.08
  A 0.75 0.75 0.0 0 0 748.48 558.33
  L 748.48 490.55"
/>
<path stroke="#797f80" vector-effect="non-scaling-stroke" d="
  M 633.0588 536.3463
  A 0.50 0.50 0.0 0 0 632.5605 535.8446
  L 612.8007 535.7756
  A 0.50 0.50 0.0 0 0 612.2989 536.2738
  L 612.2212 558.5337
  A 0.50 0.50 0.0 0 0 612.7195 559.0354
  L 632.4793 559.1044
  A 0.50 0.50 0.0 0 0 632.9811 558.6062
  L 633.0588 536.3463"
/>
<path stroke="#797f80" vector-effect="non-scaling-stroke" d="
  M 707.8907 536.3177
  A 0.39 0.39 0.0 0 0 707.5000 535.9284
  L 648.3601 536.0316
  A 0.39 0.39 0.0 0 0 647.9708 536.4223
  L 648.0093 558.5223
  A 0.39 0.39 0.0 0 0 648.4000 558.9116
  L 707.5399 558.8084
  A 0.39 0.39 0.0 0 0 707.9292 558.4177
  L 707.8907 536.3177"
/>
<path stroke="#797f80" vector-effect="non-scaling-stroke" d="
  M 596.07 740.63
  A 0.54 0.54 0.0 0 0 595.53 740.09
  L 580.75 740.09
  A 0.54 0.54 0.0 0 0 580.21 740.63
  L 580.21 775.55
  A 0.54 0.54 0.0 0 0 580.75 776.09
  L 595.53 776.09
  A 0.54 0.54 0.0 0 0 596.07 775.55
  L 596.07 740.63"
/>
<path stroke="#797f80" vector-effect="non-scaling-stroke" d="
  M 661.3504 740.5640
  A 0.56 0.56 0.0 0 0 660.7914 740.0031
  L 645.8514 739.9770
  A 0.56 0.56 0.0 0 0 645.2905 740.5360
  L 645.2296 775.4360
  A 0.56 0.56 0.0 0 0 645.7886 775.9969
  L 660.7286 776.0230
  A 0.56 0.56 0.0 0 0 661.2895 775.4640
  L 661.3504 740.5640"
/>
<path stroke="#797f80" vector-effect="non-scaling-stroke" d="
  M 695.2795 740.6659
  A 0.38 0.38 0.0 0 0 694.8988 740.2866
  L 679.4588 740.3135
  A 0.38 0.38 0.0 0 0 679.0795 740.6942
  L 679.1405 775.6541
  A 0.38 0.38 0.0 0 0 679.5212 776.0334
  L 694.9612 776.0065
  A 0.38 0.38 0.0 0 0 695.3405 775.6258
  L 695.2795 740.6659"
/>
<path stroke="#797f80" vector-effect="non-scaling-stroke" d="
  M 728.4594 740.6260
  A 0.41 0.41 0.0 0 0 728.0487 740.2167
  L 712.7687 740.2434
  A 0.41 0.41 0.0 0 0 712.3594 740.6541
  L 712.4206 775.7140
  A 0.41 0.41 0.0 0 0 712.8313 776.1233
  L 728.1113 776.0966
  A 0.41 0.41 0.0 0 0 728.5206 775.6859
  L 728.4594 740.6260"
/>
<path stroke="#797f80" vector-effect="non-scaling-stroke" d="
  M 628.7602 740.9334
  A 0.45 0.45 0.0 0 0 628.3110 740.4826
  L 613.9110 740.4575
  A 0.45 0.45 0.0 0 0 613.4602 740.9067
  L 613.3998 775.5466
  A 0.45 0.45 0.0 0 0 613.8490 775.9974
  L 628.2490 776.0225
  A 0.45 0.45 0.0 0 0 628.6998 775.5733
  L 628.7602 740.9334"
/>
<path stroke="#797f80" vector-effect="non-scaling-stroke" d="
  M 268.97 773.95
  L 268.93 745.39
  A 1.34 1.34 0.0 0 0 267.58 744.05
  L 266.02 744.05
  A 13.58 13.30 89.9 0 0 252.75 757.65
  L 252.75 761.73
  A 13.58 13.30 89.9 0 0 266.08 775.29
  L 267.64 775.29
  A 1.34 1.34 0.0 0 0 268.97 773.95"
/>
<path stroke="#797f80" vector-effect="non-scaling-stroke" d="
  M 747.36 746.14
  A 0.30 0.30 0.0 0 0 746.95 746.42
  L 746.74 771.99
  A 0.30 0.30 0.0 0 0 747.16 772.27
  L 777.92 759.58
  A 0.30 0.30 0.0 0 0 777.93 759.03
  L 747.36 746.14"
/>
</g>
<path fill="#eee7df" d="
  M 0.00 0.00
  L 1024.00 0.00
  L 1024.00 1024.00
  L 0.00 1024.00
  L 0.00 0.00
  Z
  M 492.33 455.55
  Q 492.12 376.27 492.22 297.00
  Q 492.24 279.69 475.38 276.51
  Q 473.22 276.10 471.00 276.10
  Q 366.73 276.05 262.45 276.11
  Q 254.20 276.12 252.56 276.35
  C 244.69 277.47 237.92 283.34 236.20 291.07
  Q 235.66 293.51 235.66 303.47
  Q 235.75 501.49 235.72 699.41
  A 1.29 1.28 90.0 0 0 237.00 700.70
  Q 322.63 700.68 408.50 700.76
  Q 420.42 700.77 425.75 690.40
  C 426.87 688.23 427.75 686.59 427.75 684.50
  Q 427.85 599.70 427.92 514.06
  Q 427.92 513.71 428.27 513.72
  L 473.75 513.76
  Q 474.32 513.76 474.32 514.32
  Q 474.18 595.91 474.29 677.50
  Q 474.30 683.97 474.75 686.02
  C 477.26 697.53 486.09 700.71 496.75 700.74
  Q 527.25 700.82 557.60 700.66
  Q 558.75 700.65 558.75 699.50
  L 558.77 596.69
  Q 558.77 596.15 559.31 596.15
  L 784.95 596.18
  A 0.64 0.63 -0.0 0 0 785.59 595.55
  L 785.60 234.45
  A 0.68 0.68 0.0 0 0 785.15 233.81
  C 782.79 232.95 780.81 233.23 778.39 233.23
  Q 660.83 233.25 542.67 233.24
  Q 540.19 233.24 540.19 235.72
  L 540.10 455.22
  Q 540.10 456.04 539.28 456.04
  L 492.80 456.02
  Q 492.33 456.02 492.33 455.55
  Z
  M 484.3833 264.2843
  A 8.55 8.39 87.9 0 0 492.4544 255.4326
  A 8.55 8.39 87.9 0 0 483.7567 247.1957
  A 8.55 8.39 87.9 0 0 475.6856 256.0474
  A 8.55 8.39 87.9 0 0 484.3833 264.2843
  Z
  M 523.7026 254.4357
  A 6.96 6.96 0.0 0 0 516.7669 247.4514
  L 516.0869 247.4491
  A 6.96 6.96 0.0 0 0 509.1027 254.3847
  L 508.8774 318.9243
  A 6.96 6.96 0.0 0 0 515.8131 325.9086
  L 516.4931 325.9109
  A 6.96 6.96 0.0 0 0 523.4773 318.9753
  L 523.7026 254.4357
  Z
  M 523.7153 346.9127
  A 6.92 6.92 0.0 0 0 516.8074 339.9807
  L 516.1274 339.9795
  A 6.92 6.92 0.0 0 0 509.1953 346.8874
  L 509.0847 410.2473
  A 6.92 6.92 0.0 0 0 515.9926 417.1793
  L 516.6726 417.1805
  A 6.92 6.92 0.0 0 0 523.6047 410.2726
  L 523.7153 346.9127
  Z
  M 458.8100 621.0131
  A 7.28 7.28 0.0 0 0 451.5427 613.7204
  L 451.1227 613.7197
  A 7.28 7.28 0.0 0 0 443.8301 620.9870
  L 443.6900 701.2469
  A 7.28 7.28 0.0 0 0 450.9573 708.5396
  L 451.3773 708.5403
  A 7.28 7.28 0.0 0 0 458.6699 701.2730
  L 458.8100 621.0131
  Z
  M 662.14 621.38
  A 6.69 6.69 0.0 0 0 655.45 614.69
  L 581.53 614.69
  A 6.69 6.69 0.0 0 0 574.84 621.38
  L 574.84 623.44
  A 6.69 6.69 0.0 0 0 581.53 630.13
  L 655.45 630.13
  A 6.69 6.69 0.0 0 0 662.14 623.44
  L 662.14 621.38
  Z
  M 734.4569 621.5084
  A 6.92 6.92 0.0 0 0 727.5128 614.6126
  L 683.1130 614.7675
  A 6.92 6.92 0.0 0 0 676.2172 621.7117
  L 676.2231 623.3916
  A 6.92 6.92 0.0 0 0 683.1672 630.2874
  L 727.5670 630.1325
  A 6.92 6.92 0.0 0 0 734.4628 623.1883
  L 734.4569 621.5084
  Z
  M 809.6351 621.4125
  A 6.85 6.85 0.0 0 0 802.7494 614.5984
  L 756.2700 614.8418
  A 6.85 6.85 0.0 0 0 749.4560 621.7276
  L 749.4649 623.4275
  A 6.85 6.85 0.0 0 0 756.3506 630.2416
  L 802.8300 629.9982
  A 6.85 6.85 0.0 0 0 809.6440 623.1124
  L 809.6351 621.4125
  Z
  M 701.54 654.56
  A 6.89 6.89 0.0 0 0 694.65 647.67
  L 581.99 647.67
  A 6.89 6.89 0.0 0 0 575.10 654.56
  L 575.10 656.72
  A 6.89 6.89 0.0 0 0 581.99 663.61
  L 694.65 663.61
  A 6.89 6.89 0.0 0 0 701.54 656.72
  L 701.54 654.56
  Z
  M 788.7081 654.5472
  A 6.96 6.96 0.0 0 0 781.7359 647.5993
  L 723.6760 647.7007
  A 6.96 6.96 0.0 0 0 716.7282 654.6728
  L 716.7319 656.8128
  A 6.96 6.96 0.0 0 0 723.7041 663.7607
  L 781.7640 663.6593
  A 6.96 6.96 0.0 0 0 788.7118 656.6872
  L 788.7081 654.5472
  Z
  M 663.8612 689.2479
  A 7.41 7.41 0.0 0 0 656.4642 681.8250
  L 582.0243 681.6951
  A 7.41 7.41 0.0 0 0 574.6014 689.0921
  L 574.5988 690.5921
  A 7.41 7.41 0.0 0 0 581.9958 698.0150
  L 656.4357 698.1449
  A 7.41 7.41 0.0 0 0 663.8586 690.7479
  L 663.8612 689.2479
  Z
  M 562.91 745.84
  L 562.85 774.34
  Q 562.85 774.78 562.41 774.78
  L 299.25 774.74
  Q 298.72 774.74 298.73 775.25
  L 298.82 793.42
  Q 298.83 793.95 299.35 793.95
  C 435.75 794.51 558.37 793.98 735.92 794.05
  C 739.86 794.05 742.64 793.51 745.98 791.97
  Q 781.08 775.82 815.80 759.35
  A 0.79 0.79 0.0 0 0 815.80 757.92
  Q 780.19 741.20 744.00 726.19
  C 738.27 723.81 733.06 724.42 727.00 724.41
  Q 521.00 724.35 315.00 724.26
  Q 292.13 724.25 269.25 724.62
  Q 257.84 724.81 249.79 730.56
  C 222.10 750.36 234.91 793.85 269.75 794.14
  Q 276.13 794.20 282.35 794.05
  A 0.84 0.83 89.3 0 0 283.16 793.21
  L 283.25 740.46
  A 0.56 0.56 0.0 0 1 283.80 739.90
  L 298.29 739.83
  Q 298.75 739.83 298.77 740.29
  L 299.02 744.54
  A 1.01 1.01 0.0 0 0 300.03 745.49
  L 562.59 745.51
  Q 562.91 745.51 562.91 745.84
  Z"
/>
<path fill="#031721" d="
  M 492.80 456.02
  L 539.28 456.04
  Q 540.10 456.04 540.10 455.22
  L 540.19 235.72
  Q 540.19 233.24 542.67 233.24
  Q 660.83 233.25 778.39 233.23
  C 780.81 233.23 782.79 232.95 785.15 233.81
  A 0.68 0.68 0.0 0 1 785.60 234.45
  L 785.59 595.55
  A 0.64 0.63 0.0 0 1 784.95 596.18
  L 559.31 596.15
  Q 558.77 596.15 558.77 596.69
  L 558.75 699.50
  Q 558.75 700.65 557.60 700.66
  Q 527.25 700.82 496.75 700.74
  C 486.09 700.71 477.26 697.53 474.75 686.02
  Q 474.30 683.97 474.29 677.50
  Q 474.18 595.91 474.32 514.32
  Q 474.32 513.76 473.75 513.76
  L 428.27 513.72
  Q 427.92 513.71 427.92 514.06
  Q 427.85 599.70 427.75 684.50
  C 427.75 686.59 426.87 688.23 425.75 690.40
  Q 420.42 700.77 408.50 700.76
  Q 322.63 700.68 237.00 700.70
  A 1.29 1.28 90.0 0 1 235.72 699.41
  Q 235.75 501.49 235.66 303.47
  Q 235.66 293.51 236.20 291.07
  C 237.92 283.34 244.69 277.47 252.56 276.35
  Q 254.20 276.12 262.45 276.11
  Q 366.73 276.05 471.00 276.10
  Q 473.22 276.10 475.38 276.51
  Q 492.24 279.69 492.22 297.00
  Q 492.12 376.27 492.33 455.55
  Q 492.33 456.02 492.80 456.02
  Z
  M 767.15 252.39
  A 0.38 0.38 0.0 0 0 766.77 252.01
  L 559.17 252.01
  A 0.38 0.38 0.0 0 0 558.79 252.39
  L 558.79 576.91
  A 0.38 0.38 0.0 0 0 559.17 577.29
  L 766.77 577.29
  A 0.38 0.38 0.0 0 0 767.15 576.91
  L 767.15 252.39
  Z
  M 329.11 307.52
  C 326.26 305.42 326.92 298.58 326.99 295.39
  Q 327.00 294.93 326.54 294.93
  L 255.02 294.99
  A 0.74 0.74 0.0 0 0 254.29 295.73
  L 254.12 342.45
  A 0.33 0.33 0.0 0 0 254.45 342.78
  L 409.69 342.80
  A 0.30 0.30 0.0 0 0 409.99 342.50
  L 409.95 295.60
  A 0.60 0.60 0.0 0 0 409.35 295.00
  L 346.20 294.93
  Q 345.76 294.93 345.77 295.37
  C 345.87 298.62 347.25 307.28 342.44 307.89
  Q 336.53 308.63 330.68 308.11
  A 3.04 3.04 0.0 0 1 329.11 307.52
  Z
  M 457.91 365.93
  C 454.24 372.58 443.87 371.22 443.85 363.25
  Q 443.77 329.54 443.86 295.80
  Q 443.87 295.24 443.31 295.23
  L 428.31 294.91
  A 0.52 0.52 0.0 0 0 427.78 295.43
  L 427.82 455.67
  A 0.36 0.35 90.0 0 0 428.17 456.03
  L 474.05 456.01
  Q 474.36 456.01 474.36 455.70
  L 474.21 295.70
  Q 474.21 295.18 473.70 295.18
  L 459.27 294.96
  Q 458.64 294.95 458.64 295.58
  Q 458.80 326.85 458.64 358.06
  C 458.63 360.22 458.84 364.25 457.91 365.93
  Z
  M 409.96 361.38
  A 0.39 0.39 0.0 0 0 409.57 360.99
  L 254.53 360.99
  A 0.39 0.39 0.0 0 0 254.14 361.38
  L 254.14 381.24
  A 0.39 0.39 0.0 0 0 254.53 381.63
  L 409.57 381.63
  A 0.39 0.39 0.0 0 0 409.96 381.24
  L 409.96 361.38
  Z
  M 327.01 400.84
  A 0.27 0.27 0.0 0 0 326.74 400.57
  L 254.48 400.57
  A 0.27 0.27 0.0 0 0 254.21 400.84
  L 254.21 455.74
  A 0.27 0.27 0.0 0 0 254.48 456.01
  L 326.74 456.01
  A 0.27 0.27 0.0 0 0 327.01 455.74
  L 327.01 400.84
  Z
  M 409.98 400.81
  A 0.26 0.26 0.0 0 0 409.72 400.55
  L 346.16 400.55
  A 0.26 0.26 0.0 0 0 345.90 400.81
  L 345.90 455.75
  A 0.26 0.26 0.0 0 0 346.16 456.01
  L 409.72 456.01
  A 0.26 0.26 0.0 0 0 409.98 455.75
  L 409.98 400.81
  Z
  M 254.64 474.44
  A 0.32 0.32 0.0 0 0 254.32 474.75
  L 253.83 494.56
  A 0.32 0.32 0.0 0 0 254.15 494.89
  L 409.73 494.81
  A 0.32 0.32 0.0 0 0 410.05 494.49
  L 409.96 474.81
  A 0.32 0.32 0.0 0 0 409.64 474.49
  L 254.64 474.44
  Z
  M 474.4373 474.7406
  A 0.36 0.36 0.0 0 0 474.0779 474.3800
  L 428.2380 474.3000
  A 0.36 0.36 0.0 0 0 427.8774 474.6594
  L 427.8427 494.5394
  A 0.36 0.36 0.0 0 0 428.2021 494.9000
  L 474.0420 494.9800
  A 0.36 0.36 0.0 0 0 474.4026 494.6206
  L 474.4373 474.7406
  Z
  M 540.1074 474.7017
  A 0.27 0.27 0.0 0 0 539.8379 474.4312
  L 492.6180 474.3488
  A 0.27 0.27 0.0 0 0 492.3475 474.6183
  L 492.3126 494.6183
  A 0.27 0.27 0.0 0 0 492.5821 494.8888
  L 539.8020 494.9712
  A 0.27 0.27 0.0 0 0 540.0725 494.7017
  L 540.1074 474.7017
  Z
  M 409.95 514.01
  A 0.27 0.27 0.0 0 0 409.68 513.74
  L 346.16 513.74
  A 0.27 0.27 0.0 0 0 345.89 514.01
  L 345.89 562.15
  A 0.27 0.27 0.0 0 0 346.16 562.42
  L 409.68 562.42
  A 0.27 0.27 0.0 0 0 409.95 562.15
  L 409.95 514.01
  Z
  M 540.09 514.00
  A 0.28 0.28 0.0 0 0 539.81 513.72
  L 492.61 513.72
  A 0.28 0.28 0.0 0 0 492.33 514.00
  L 492.33 681.96
  A 0.28 0.28 0.0 0 0 492.61 682.24
  L 539.81 682.24
  A 0.28 0.28 0.0 0 0 540.09 681.96
  L 540.09 514.00
  Z
  M 327.05 514.03
  A 0.27 0.27 0.0 0 0 326.78 513.76
  L 254.48 513.76
  A 0.27 0.27 0.0 0 0 254.21 514.03
  L 254.21 562.15
  A 0.27 0.27 0.0 0 0 254.48 562.42
  L 326.78 562.42
  A 0.27 0.27 0.0 0 0 327.05 562.15
  L 327.05 514.03
  Z
  M 409.93 581.21
  A 0.26 0.26 0.0 0 0 409.67 580.95
  L 254.43 580.95
  A 0.26 0.26 0.0 0 0 254.17 581.21
  L 254.17 600.95
  A 0.26 0.26 0.0 0 0 254.43 601.21
  L 409.67 601.21
  A 0.26 0.26 0.0 0 0 409.93 600.95
  L 409.93 581.21
  Z
  M 327.1143 619.7936
  A 0.26 0.26 0.0 0 0 326.8547 619.5332
  L 254.5148 619.4069
  A 0.26 0.26 0.0 0 0 254.2544 619.6665
  L 254.1457 681.9064
  A 0.26 0.26 0.0 0 0 254.4053 682.1668
  L 326.7452 682.2931
  A 0.26 0.26 0.0 0 0 327.0056 682.0335
  L 327.1143 619.7936
  Z
  M 409.96 619.78
  A 0.31 0.31 0.0 0 0 409.65 619.47
  L 346.27 619.47
  A 0.31 0.31 0.0 0 0 345.96 619.78
  L 345.96 681.90
  A 0.31 0.31 0.0 0 0 346.27 682.21
  L 409.65 682.21
  A 0.31 0.31 0.0 0 0 409.96 681.90
  L 409.96 619.78
  Z"
/>
<ellipse fill="#031721" cx="0.00" cy="0.00" transform="translate(484.07,255.74) rotate(87.9)" rx="8.55" ry="8.39"/>
<rect fill="#031721" x="-7.30" y="-39.23" transform="translate(516.29,286.68) rotate(0.2)" width="14.60" height="78.46" rx="6.96"/>
<path fill="#eee7df" d="
  M 767.15 576.91
  A 0.38 0.38 0.0 0 1 766.77 577.29
  L 559.17 577.29
  A 0.38 0.38 0.0 0 1 558.79 576.91
  L 558.79 252.39
  A 0.38 0.38 0.0 0 1 559.17 252.01
  L 766.77 252.01
  A 0.38 0.38 0.0 0 1 767.15 252.39
  L 767.15 576.91
  Z
  M 704.80 271.40
  A 0.84 0.84 0.0 0 0 703.96 270.56
  L 578.68 270.56
  A 0.84 0.84 0.0 0 0 577.84 271.40
  L 577.84 288.60
  A 0.84 0.84 0.0 0 0 578.68 289.44
  L 703.96 289.44
  A 0.84 0.84 0.0 0 0 704.80 288.60
  L 704.80 271.40
  Z
  M 748.2450 271.3956
  A 0.91 0.91 0.0 0 0 747.3334 270.4872
  L 721.1535 270.5329
  A 0.91 0.91 0.0 0 0 720.2451 271.4444
  L 720.2750 288.5844
  A 0.91 0.91 0.0 0 0 721.1866 289.4928
  L 747.3665 289.4471
  A 0.91 0.91 0.0 0 0 748.2749 288.5356
  L 748.2450 271.3956
  Z
  M 748.13 308.09
  A 0.71 0.71 0.0 0 0 747.42 307.38
  L 578.94 307.38
  A 0.71 0.71 0.0 0 0 578.23 308.09
  L 578.23 366.45
  A 0.71 0.71 0.0 0 0 578.94 367.16
  L 747.42 367.16
  A 0.71 0.71 0.0 0 0 748.13 366.45
  L 748.13 308.09
  Z
  M 594.80 402.81
  A 0.27 0.27 0.0 0 0 594.53 402.54
  L 576.69 402.54
  A 0.27 0.27 0.0 0 0 576.42 402.81
  L 576.42 558.91
  A 0.27 0.27 0.0 0 0 576.69 559.18
  L 594.53 559.18
  A 0.27 0.27 0.0 0 0 594.80 558.91
  L 594.80 402.81
  Z
  M 633.0554 403.0782
  A 0.47 0.47 0.0 0 0 632.5862 402.6074
  L 612.7262 402.5727
  A 0.47 0.47 0.0 0 0 612.2554 403.0419
  L 612.2046 432.1218
  A 0.47 0.47 0.0 0 0 612.6738 432.5926
  L 632.5338 432.6273
  A 0.47 0.47 0.0 0 0 633.0046 432.1581
  L 633.0554 403.0782
  Z
  M 669.74 403.22
  A 0.57 0.57 0.0 0 0 669.17 402.64
  L 648.45 402.46
  A 0.57 0.57 0.0 0 0 647.87 403.03
  L 648.07 432.00
  A 0.57 0.57 0.0 0 0 648.64 432.57
  L 668.97 432.44
  A 0.57 0.57 0.0 0 0 669.53 431.88
  L 669.74 403.22
  Z
  M 707.87 403.20
  A 0.62 0.62 0.0 0 0 707.25 402.58
  L 686.41 402.58
  A 0.62 0.62 0.0 0 0 685.79 403.20
  L 685.79 431.86
  A 0.62 0.62 0.0 0 0 686.41 432.48
  L 707.25 432.48
  A 0.62 0.62 0.0 0 0 707.87 431.86
  L 707.87 403.20
  Z
  M 748.38 403.21
  A 0.67 0.67 0.0 0 0 747.71 402.54
  L 726.47 402.54
  A 0.67 0.67 0.0 0 0 725.80 403.21
  L 725.80 431.85
  A 0.67 0.67 0.0 0 0 726.47 432.52
  L 747.71 432.52
  A 0.67 0.67 0.0 0 0 748.38 431.85
  L 748.38 403.21
  Z
  M 633.10 448.91
  A 0.34 0.34 0.0 0 0 632.75 448.56
  L 612.48 448.68
  A 0.34 0.34 0.0 0 0 612.14 449.02
  L 612.28 471.88
  A 0.34 0.34 0.0 0 0 612.62 472.21
  L 632.44 471.91
  A 0.34 0.34 0.0 0 0 632.77 471.57
  L 633.10 448.91
  Z
  M 669.72 449.03
  A 0.43 0.43 0.0 0 0 669.29 448.60
  L 648.24 448.50
  A 0.43 0.43 0.0 0 0 647.81 448.93
  L 647.97 471.70
  A 0.43 0.43 0.0 0 0 648.40 472.13
  L 669.27 471.94
  A 0.43 0.43 0.0 0 0 669.70 471.51
  L 669.72 449.03
  Z
  M 707.95 449.06
  A 0.46 0.46 0.0 0 0 707.49 448.60
  L 686.27 448.60
  A 0.46 0.46 0.0 0 0 685.81 449.06
  L 685.81 471.56
  A 0.46 0.46 0.0 0 0 686.27 472.02
  L 707.49 472.02
  A 0.46 0.46 0.0 0 0 707.95 471.56
  L 707.95 449.06
  Z
  M 748.2694 449.2199
  A 0.63 0.63 0.0 0 0 747.6405 448.5888
  L 726.1605 448.5513
  A 0.63 0.63 0.0 0 0 725.5294 449.1802
  L 725.4906 471.4001
  A 0.63 0.63 0.0 0 0 726.1195 472.0312
  L 747.5995 472.0687
  A 0.63 0.63 0.0 0 0 748.2306 471.4398
  L 748.2694 449.2199
  Z
  M 632.9855 490.2119
  A 0.45 0.45 0.0 0 0 632.5347 489.7627
  L 612.6348 489.7974
  A 0.45 0.45 0.0 0 0 612.1855 490.2482
  L 612.2345 518.2881
  A 0.45 0.45 0.0 0 0 612.6853 518.7373
  L 632.5852 518.7026
  A 0.45 0.45 0.0 0 0 633.0345 518.2518
  L 632.9855 490.2119
  Z
  M 669.72 490.44
  A 0.53 0.53 0.0 0 0 669.19 489.91
  L 648.51 489.84
  A 0.53 0.53 0.0 0 0 647.97 490.38
  L 648.15 518.15
  A 0.53 0.53 0.0 0 0 648.68 518.68
  L 669.05 518.67
  A 0.53 0.53 0.0 0 0 669.58 518.14
  L 669.72 490.44
  Z
  M 708.00 490.41
  A 0.59 0.59 0.0 0 0 707.41 489.81
  L 686.36 489.97
  A 0.59 0.59 0.0 0 0 685.77 490.56
  L 685.77 518.04
  A 0.59 0.59 0.0 0 0 686.36 518.63
  L 707.06 518.67
  A 0.59 0.59 0.0 0 0 707.65 518.09
  L 708.00 490.41
  Z
  M 748.48 490.55
  A 0.75 0.75 0.0 0 0 747.73 489.80
  L 727.15 489.80
  A 0.75 0.75 0.0 0 0 726.40 490.55
  L 726.40 558.33
  A 0.75 0.75 0.0 0 0 727.15 559.08
  L 747.73 559.08
  A 0.75 0.75 0.0 0 0 748.48 558.33
  L 748.48 490.55
  Z
  M 633.0588 536.3463
  A 0.50 0.50 0.0 0 0 632.5605 535.8446
  L 612.8007 535.7756
  A 0.50 0.50 0.0 0 0 612.2989 536.2738
  L 612.2212 558.5337
  A 0.50 0.50 0.0 0 0 612.7195 559.0354
  L 632.4793 559.1044
  A 0.50 0.50 0.0 0 0 632.9811 558.6062
  L 633.0588 536.3463
  Z
  M 707.8907 536.3177
  A 0.39 0.39 0.0 0 0 707.5000 535.9284
  L 648.3601 536.0316
  A 0.39 0.39 0.0 0 0 647.9708 536.4223
  L 648.0093 558.5223
  A 0.39 0.39 0.0 0 0 648.4000 558.9116
  L 707.5399 558.8084
  A 0.39 0.39 0.0 0 0 707.9292 558.4177
  L 707.8907 536.3177
  Z"
/>
<rect fill="#031721" x="577.84" y="270.56" width="126.96" height="18.88" rx="0.84"/>
<rect fill="#031721" x="-14.00" y="-9.48" transform="translate(734.26,279.99) rotate(-0.1)" width="28.00" height="18.96" rx="0.91"/>
<path fill="#eee7df" d="
  M 329.11 307.52
  A 3.04 3.04 0.0 0 0 330.68 308.11
  Q 336.53 308.63 342.44 307.89
  C 347.25 307.28 345.87 298.62 345.77 295.37
  Q 345.76 294.93 346.20 294.93
  L 409.35 295.00
  A 0.60 0.60 0.0 0 1 409.95 295.60
  L 409.99 342.50
  A 0.30 0.30 0.0 0 1 409.69 342.80
  L 254.45 342.78
  A 0.33 0.33 0.0 0 1 254.12 342.45
  L 254.29 295.73
  A 0.74 0.74 0.0 0 1 255.02 294.99
  L 326.54 294.93
  Q 327.00 294.93 326.99 295.39
  C 326.92 298.58 326.26 305.42 329.11 307.52
  Z"
/>
<path fill="#eee7df" d="
  M 457.91 365.93
  C 458.84 364.25 458.63 360.22 458.64 358.06
  Q 458.80 326.85 458.64 295.58
  Q 458.64 294.95 459.27 294.96
  L 473.70 295.18
  Q 474.21 295.18 474.21 295.70
  L 474.36 455.70
  Q 474.36 456.01 474.05 456.01
  L 428.17 456.03
  A 0.36 0.35 90.0 0 1 427.82 455.67
  L 427.78 295.43
  A 0.52 0.52 0.0 0 1 428.31 294.91
  L 443.31 295.23
  Q 443.87 295.24 443.86 295.80
  Q 443.77 329.54 443.85 363.25
  C 443.87 371.22 454.24 372.58 457.91 365.93
  Z"
/>
<rect fill="#031721" x="578.23" y="307.38" width="169.90" height="59.78" rx="0.71"/>
<rect fill="#031721" x="-7.26" y="-38.60" transform="translate(516.40,378.58) rotate(0.1)" width="14.52" height="77.20" rx="6.92"/>
<rect fill="#eee7df" x="254.14" y="360.99" width="155.82" height="20.64" rx="0.39"/>
<rect fill="#eee7df" x="254.21" y="400.57" width="72.80" height="55.44" rx="0.27"/>
<rect fill="#eee7df" x="345.90" y="400.55" width="64.08" height="55.46" rx="0.26"/>
<rect fill="#031721" x="576.42" y="402.54" width="18.38" height="156.64" rx="0.27"/>
<rect fill="#031721" x="-10.40" y="-15.01" transform="translate(622.63,417.60) rotate(0.1)" width="20.80" height="30.02" rx="0.47"/>
<path fill="#031721" d="
  M 669.74 403.22
  L 669.53 431.88
  A 0.57 0.57 0.0 0 1 668.97 432.44
  L 648.64 432.57
  A 0.57 0.57 0.0 0 1 648.07 432.00
  L 647.87 403.03
  A 0.57 0.57 0.0 0 1 648.45 402.46
  L 669.17 402.64
  A 0.57 0.57 0.0 0 1 669.74 403.22
  Z"
/>
<rect fill="#031721" x="685.79" y="402.58" width="22.08" height="29.90" rx="0.62"/>
<rect fill="#031721" x="725.80" y="402.54" width="22.58" height="29.98" rx="0.67"/>
<path fill="#031721" d="
  M 633.10 448.91
  L 632.77 471.57
  A 0.34 0.34 0.0 0 1 632.44 471.91
  L 612.62 472.21
  A 0.34 0.34 0.0 0 1 612.28 471.88
  L 612.14 449.02
  A 0.34 0.34 0.0 0 1 612.48 448.68
  L 632.75 448.56
  A 0.34 0.34 0.0 0 1 633.10 448.91
  Z"
/>
<path fill="#031721" d="
  M 669.72 449.03
  L 669.70 471.51
  A 0.43 0.43 0.0 0 1 669.27 471.94
  L 648.40 472.13
  A 0.43 0.43 0.0 0 1 647.97 471.70
  L 647.81 448.93
  A 0.43 0.43 0.0 0 1 648.24 448.50
  L 669.29 448.60
  A 0.43 0.43 0.0 0 1 669.72 449.03
  Z"
/>
<rect fill="#031721" x="685.81" y="448.60" width="22.14" height="23.42" rx="0.46"/>
<rect fill="#031721" x="-11.37" y="-11.74" transform="translate(736.88,460.31) rotate(0.1)" width="22.74" height="23.48" rx="0.63"/>
<path fill="#eee7df" d="
  M 254.64 474.44
  L 409.64 474.49
  A 0.32 0.32 0.0 0 1 409.96 474.81
  L 410.05 494.49
  A 0.32 0.32 0.0 0 1 409.73 494.81
  L 254.15 494.89
  A 0.32 0.32 0.0 0 1 253.83 494.56
  L 254.32 474.75
  A 0.32 0.32 0.0 0 1 254.64 474.44
  Z"
/>
<rect fill="#eee7df" x="-23.28" y="-10.30" transform="translate(451.14,484.64) rotate(0.1)" width="46.56" height="20.60" rx="0.36"/>
<rect fill="#eee7df" x="-23.88" y="-10.27" transform="translate(516.21,484.66) rotate(0.1)" width="47.76" height="20.54" rx="0.27"/>
<rect fill="#031721" x="-10.40" y="-14.47" transform="translate(622.61,504.25) rotate(-0.1)" width="20.80" height="28.94" rx="0.45"/>
<path fill="#031721" d="
  M 669.72 490.44
  L 669.58 518.14
  A 0.53 0.53 0.0 0 1 669.05 518.67
  L 648.68 518.68
  A 0.53 0.53 0.0 0 1 648.15 518.15
  L 647.97 490.38
  A 0.53 0.53 0.0 0 1 648.51 489.84
  L 669.19 489.91
  A 0.53 0.53 0.0 0 1 669.72 490.44
  Z"
/>
<path fill="#031721" d="
  M 708.00 490.41
  L 707.65 518.09
  A 0.59 0.59 0.0 0 1 707.06 518.67
  L 686.36 518.63
  A 0.59 0.59 0.0 0 1 685.77 518.04
  L 685.77 490.56
  A 0.59 0.59 0.0 0 1 686.36 489.97
  L 707.41 489.81
  A 0.59 0.59 0.0 0 1 708.00 490.41
  Z"
/>
<rect fill="#031721" x="726.40" y="489.80" width="22.08" height="69.28" rx="0.75"/>
<rect fill="#eee7df" x="345.89" y="513.74" width="64.06" height="48.68" rx="0.27"/>
<rect fill="#eee7df" x="492.33" y="513.72" width="47.76" height="168.52" rx="0.28"/>
<rect fill="#eee7df" x="254.21" y="513.76" width="72.84" height="48.66" rx="0.27"/>
<rect fill="#031721" x="-10.38" y="-11.63" transform="translate(622.64,547.44) rotate(0.2)" width="20.76" height="23.26" rx="0.50"/>
<rect fill="#031721" x="-29.96" y="-11.44" transform="translate(677.95,547.42) rotate(-0.1)" width="59.92" height="22.88" rx="0.39"/>
<rect fill="#eee7df" x="254.17" y="580.95" width="155.76" height="20.26" rx="0.26"/>
<rect fill="#031721" x="-7.49" y="-47.41" transform="translate(451.25,661.13) rotate(0.1)" width="14.98" height="94.82" rx="7.28"/>
<rect fill="#031721" x="574.84" y="614.69" width="87.30" height="15.44" rx="6.69"/>
<rect fill="#031721" x="-29.12" y="-7.76" transform="translate(705.34,622.45) rotate(-0.2)" width="58.24" height="15.52" rx="6.92"/>
<rect fill="#031721" x="-30.09" y="-7.70" transform="translate(779.55,622.42) rotate(-0.3)" width="60.18" height="15.40" rx="6.85"/>
<rect fill="#eee7df" x="-36.43" y="-31.38" transform="translate(290.63,650.85) rotate(0.1)" width="72.86" height="62.76" rx="0.26"/>
<rect fill="#eee7df" x="345.96" y="619.47" width="64.00" height="62.74" rx="0.31"/>
<rect fill="#031721" x="575.10" y="647.67" width="126.44" height="15.94" rx="6.89"/>
<rect fill="#031721" x="-35.99" y="-8.03" transform="translate(752.72,655.68) rotate(-0.1)" width="71.98" height="16.06" rx="6.96"/>
<rect fill="#031721" x="-44.63" y="-8.16" transform="translate(619.23,689.92) rotate(0.1)" width="89.26" height="16.32" rx="7.41"/>
<path fill="#031721" d="
  M 562.91 745.84
  Q 562.91 745.51 562.59 745.51
  L 300.03 745.49
  A 1.01 1.01 0.0 0 1 299.02 744.54
  L 298.77 740.29
  Q 298.75 739.83 298.29 739.83
  L 283.80 739.90
  A 0.56 0.56 0.0 0 0 283.25 740.46
  L 283.16 793.21
  A 0.84 0.83 89.3 0 1 282.35 794.05
  Q 276.13 794.20 269.75 794.14
  C 234.91 793.85 222.10 750.36 249.79 730.56
  Q 257.84 724.81 269.25 724.62
  Q 292.13 724.25 315.00 724.26
  Q 521.00 724.35 727.00 724.41
  C 733.06 724.42 738.27 723.81 744.00 726.19
  Q 780.19 741.20 815.80 757.92
  A 0.79 0.79 0.0 0 1 815.80 759.35
  Q 781.08 775.82 745.98 791.97
  C 742.64 793.51 739.86 794.05 735.92 794.05
  C 558.37 793.98 435.75 794.51 299.35 793.95
  Q 298.83 793.95 298.82 793.42
  L 298.73 775.25
  Q 298.72 774.74 299.25 774.74
  L 562.41 774.78
  Q 562.85 774.78 562.85 774.34
  L 562.91 745.84
  Z
  M 596.07 740.63
  A 0.54 0.54 0.0 0 0 595.53 740.09
  L 580.75 740.09
  A 0.54 0.54 0.0 0 0 580.21 740.63
  L 580.21 775.55
  A 0.54 0.54 0.0 0 0 580.75 776.09
  L 595.53 776.09
  A 0.54 0.54 0.0 0 0 596.07 775.55
  L 596.07 740.63
  Z
  M 661.3504 740.5640
  A 0.56 0.56 0.0 0 0 660.7914 740.0031
  L 645.8514 739.9770
  A 0.56 0.56 0.0 0 0 645.2905 740.5360
  L 645.2296 775.4360
  A 0.56 0.56 0.0 0 0 645.7886 775.9969
  L 660.7286 776.0230
  A 0.56 0.56 0.0 0 0 661.2895 775.4640
  L 661.3504 740.5640
  Z
  M 695.2795 740.6659
  A 0.38 0.38 0.0 0 0 694.8988 740.2866
  L 679.4588 740.3135
  A 0.38 0.38 0.0 0 0 679.0795 740.6942
  L 679.1405 775.6541
  A 0.38 0.38 0.0 0 0 679.5212 776.0334
  L 694.9612 776.0065
  A 0.38 0.38 0.0 0 0 695.3405 775.6258
  L 695.2795 740.6659
  Z
  M 728.4594 740.6260
  A 0.41 0.41 0.0 0 0 728.0487 740.2167
  L 712.7687 740.2434
  A 0.41 0.41 0.0 0 0 712.3594 740.6541
  L 712.4206 775.7140
  A 0.41 0.41 0.0 0 0 712.8313 776.1233
  L 728.1113 776.0966
  A 0.41 0.41 0.0 0 0 728.5206 775.6859
  L 728.4594 740.6260
  Z
  M 628.7602 740.9334
  A 0.45 0.45 0.0 0 0 628.3110 740.4826
  L 613.9110 740.4575
  A 0.45 0.45 0.0 0 0 613.4602 740.9067
  L 613.3998 775.5466
  A 0.45 0.45 0.0 0 0 613.8490 775.9974
  L 628.2490 776.0225
  A 0.45 0.45 0.0 0 0 628.6998 775.5733
  L 628.7602 740.9334
  Z
  M 268.97 773.95
  L 268.93 745.39
  A 1.34 1.34 0.0 0 0 267.58 744.05
  L 266.02 744.05
  A 13.58 13.30 89.9 0 0 252.75 757.65
  L 252.75 761.73
  A 13.58 13.30 89.9 0 0 266.08 775.29
  L 267.64 775.29
  A 1.34 1.34 0.0 0 0 268.97 773.95
  Z
  M 747.36 746.14
  A 0.30 0.30 0.0 0 0 746.95 746.42
  L 746.74 771.99
  A 0.30 0.30 0.0 0 0 747.16 772.27
  L 777.92 759.58
  A 0.30 0.30 0.0 0 0 777.93 759.03
  L 747.36 746.14
  Z"
/>
<rect fill="#eee7df" x="580.21" y="740.09" width="15.86" height="36.00" rx="0.54"/>
<rect fill="#eee7df" x="-8.03" y="-18.01" transform="translate(653.29,758.00) rotate(0.1)" width="16.06" height="36.02" rx="0.56"/>
<rect fill="#eee7df" x="-8.10" y="-17.86" transform="translate(687.21,758.16) rotate(-0.1)" width="16.20" height="35.72" rx="0.38"/>
<rect fill="#eee7df" x="-8.05" y="-17.94" transform="translate(720.44,758.17) rotate(-0.1)" width="16.10" height="35.88" rx="0.41"/>
<rect fill="#eee7df" x="-7.65" y="-17.77" transform="translate(621.08,758.24) rotate(0.1)" width="15.30" height="35.54" rx="0.45"/>
<path fill="#eee7df" d="
  M 268.97 773.95
  A 1.34 1.34 0.0 0 1 267.64 775.29
  L 266.08 775.29
  A 13.58 13.30 89.9 0 1 252.75 761.73
  L 252.75 757.65
  A 13.58 13.30 89.9 0 1 266.02 744.05
  L 267.58 744.05
  A 1.34 1.34 0.0 0 1 268.93 745.39
  L 268.97 773.95
  Z"
/>
<path fill="#eee7df" d="
  M 747.36 746.14
  L 777.93 759.03
  A 0.30 0.30 0.0 0 1 777.92 759.58
  L 747.16 772.27
  A 0.30 0.30 0.0 0 1 746.74 771.99
  L 746.95 746.42
  A 0.30 0.30 0.0 0 1 747.36 746.14
  Z"
/>
</svg>
