<?xml version="1.0" encoding="UTF-8" standalone="no"?>
<!DOCTYPE svg PUBLIC "-//W3C//DTD SVG 1.1//EN" "http://www.w3.org/Graphics/SVG/1.1/DTD/svg11.dtd">
<svg xmlns="http://www.w3.org/2000/svg" version="1.1" viewBox="0.00 0.00 225.00 225.00">
<g stroke-width="1.60" fill="none" stroke-linecap="butt">
<path stroke="#1a6880" vector-effect="non-scaling-stroke" d="
  M 162.69 74.68
  Q 152.96 75.80 143.23 75.05
  Q 142.39 74.98 142.51 74.15
  C 143.23 69.44 142.30 65.19 140.93 60.40
  C 139.74 56.26 132.08 38.83 125.81 47.07
  C 122.82 51.00 121.27 55.81 117.56 59.99
  C 107.95 70.81 99.82 59.48 94.49 52.15
  A 2.68 2.65 85.9 0 0 93.59 51.36
  Q 89.79 49.31 89.17 53.76
  Q 88.19 60.75 87.22 67.64
  A 0.77 0.77 0.0 0 1 86.37 68.30
  C 78.72 67.40 71.81 64.90 64.62 62.92
  Q 62.26 62.27 64.42 61.12
  L 66.77 59.86
  A 1.17 1.16 42.9 0 0 66.69 57.77
  L 53.75 51.94
  A 2.77 2.77 0.0 0 0 50.88 52.32
  C 47.78 54.85 42.99 58.92 42.99 63.25
  Q 42.98 67.14 43.28 70.77
  A 1.07 1.06 73.4 0 1 42.74 71.78
  L 23.25 82.66
  Q 22.60 83.02 21.89 82.80
  Q 15.04 80.70 12.97 86.50
  C 12.27 88.45 12.70 90.35 13.89 91.95
  C 15.47 94.07 18.83 94.25 20.23 96.01
  Q 29.81 108.06 39.45 120.06
  C 40.88 121.84 41.55 125.58 43.28 128.04
  C 44.35 129.56 44.44 130.76 44.45 132.50
  Q 44.53 152.12 44.52 171.75
  Q 44.52 173.19 44.66 174.43
  Q 44.74 175.14 45.45 175.18
  L 168.39 181.70
  Q 168.81 181.72 168.88 181.31
  L 176.00 137.43
  Q 176.11 136.72 176.66 136.26
  C 179.39 133.97 181.84 131.62 185.00 129.84
  Q 194.11 124.68 203.36 119.75
  C 205.53 118.60 208.04 118.67 210.09 117.54
  C 214.74 114.97 214.68 108.15 209.98 105.59
  C 208.10 104.58 204.77 104.55 203.03 103.21
  Q 192.86 95.39 182.70 87.37
  A 1.09 1.09 0.0 0 1 182.35 86.14
  C 183.31 83.52 185.59 77.66 184.16 75.09
  Q 181.16 69.71 177.53 65.30
  A 1.96 1.96 0.0 0 0 175.45 64.67
  Q 167.73 67.04 160.58 70.80
  A 0.86 0.86 0.0 0 0 160.68 72.36
  L 162.87 73.20
  Q 165.80 74.32 162.69 74.68"
/>
<path stroke="#1a6880" vector-effect="non-scaling-stroke" d="
  M 61.29 61.99
  A 0.82 0.82 0.0 0 0 60.91 60.97
  C 58.28 59.57 55.53 57.97 52.47 59.99
  Q 51.13 60.88 51.01 62.75
  C 50.69 67.70 49.49 73.09 51.94 75.99
  Q 53.31 77.61 54.75 76.05
  L 59.48 70.96
  A 1.45 1.45 0.0 0 0 59.88 69.96
  Q 59.85 65.84 61.29 61.99"
/>
<path stroke="#1a6880" vector-effect="non-scaling-stroke" d="
  M 69.31 80.79
  Q 72.41 80.58 75.51 80.59
  Q 116.26 80.65 156.56 86.98
  Q 157.03 87.05 157.02 87.53
  L 156.17 124.97
  A 0.67 0.67 0.0 0 0 156.80 125.66
  L 168.25 126.44
  A 0.73 0.71 -71.1 0 0 168.88 126.12
  Q 172.17 121.09 178.02 123.22
  A 1.83 1.81 40.2 0 0 179.52 123.10
  L 197.52 113.14
  A 1.02 1.02 0.0 0 0 198.03 112.44
  L 198.62 109.31
  A 1.81 1.80 -64.8 0 0 198.00 107.58
  L 180.17 92.60
  A 1.49 1.48 -39.9 0 0 178.46 92.45
  C 176.06 93.85 171.93 96.18 169.37 93.87
  Q 165.39 90.31 161.44 85.69
  A 1.23 1.23 0.0 0 1 162.25 83.67
  Q 163.53 83.53 163.36 82.28
  A 0.57 0.56 87.5 0 0 162.83 81.78
  Q 158.03 81.50 153.26 80.93
  Q 114.76 76.31 76.25 71.80
  Q 68.25 70.86 63.04 69.77
  A 0.31 0.31 0.0 0 0 62.71 69.94
  L 62.55 70.26
  A 0.51 0.50 -63.9 0 0 62.78 70.94
  L 64.17 71.61
  A 1.29 1.29 0.0 0 1 64.50 73.70
  Q 59.48 78.53 54.46 81.68
  C 53.19 82.48 52.58 82.81 51.14 81.95
  Q 48.30 80.24 45.54 78.55
  A 1.56 1.54 45.8 0 0 43.95 78.52
  L 25.14 89.27
  A 1.19 1.19 0.0 0 0 24.82 91.07
  Q 35.12 103.38 45.49 116.02
  Q 46.93 117.76 50.48 119.33
  C 54.71 121.20 60.56 120.86 65.25 121.14
  A 0.72 0.71 4.6 0 0 66.01 120.50
  C 67.40 107.44 68.12 94.39 68.82 81.29
  Q 68.84 80.82 69.31 80.79"
/>
<path stroke="#1a6880" vector-effect="non-scaling-stroke" d="
  M 169.48 82.47
  L 167.23 82.19
  A 0.56 0.56 0.0 0 0 166.65 82.99
  C 167.47 84.67 169.74 88.79 171.76 88.98
  C 175.34 89.32 175.43 82.19 175.92 79.62
  C 176.61 75.99 175.09 74.58 173.13 72.02
  C 171.87 70.36 168.75 72.53 167.49 73.21
  Q 166.31 73.84 167.61 74.13
  L 168.61 74.35
  Q 169.24 74.49 169.33 75.13
  L 170.20 81.75
  Q 170.31 82.58 169.48 82.47"
/>
<path stroke="#808080" vector-effect="non-scaling-stroke" d="
  M 94.08 91.06
  A 5.19 5.19 0.0 0 0 88.89 85.87
  A 5.19 5.19 0.0 0 0 83.70 91.06
  A 5.19 5.19 0.0 0 0 88.89 96.25
  A 5.19 5.19 0.0 0 0 94.08 91.06"
/>
<path stroke="#808080" vector-effect="non-scaling-stroke" d="
  M 144.01 94.81
  A 5.26 5.26 0.0 0 0 138.75 89.55
  A 5.26 5.26 0.0 0 0 133.49 94.81
  A 5.26 5.26 0.0 0 0 138.75 100.07
  A 5.26 5.26 0.0 0 0 144.01 94.81"
/>
<path stroke="#808080" vector-effect="non-scaling-stroke" d="
  M 73.96 97.86
  A 0.31 0.31 0.0 0 0 73.63 98.16
  L 72.77 119.29
  A 0.31 0.31 0.0 0 0 73.07 119.61
  L 149.67 123.33
  A 0.31 0.31 0.0 0 0 150.00 123.03
  L 150.33 104.07
  A 0.31 0.31 0.0 0 0 150.05 103.76
  L 73.96 97.86"
/>
<path stroke="#1a6880" vector-effect="non-scaling-stroke" d="
  M 55.53 129.68
  A 1.34 1.34 0.0 0 0 54.19 128.34
  A 1.34 1.34 0.0 0 0 52.85 129.68
  A 1.34 1.34 0.0 0 0 54.19 131.02
  A 1.34 1.34 0.0 0 0 55.53 129.68"
/>
<path stroke="#808080" vector-effect="non-scaling-stroke" d="
  M 64.92 129.69
  A 1.30 1.30 0.0 0 0 63.62 128.39
  A 1.30 1.30 0.0 0 0 62.32 129.69
  A 1.30 1.30 0.0 0 0 63.62 130.99
  A 1.30 1.30 0.0 0 0 64.92 129.69"
/>
<path stroke="#808080" vector-effect="non-scaling-stroke" d="
  M 75.2882 130.2018
  A 1.42 1.20 2.9 0 0 73.9307 128.9315
  A 1.42 1.20 2.9 0 0 72.4518 130.0582
  A 1.42 1.20 2.9 0 0 73.8093 131.3285
  A 1.42 1.20 2.9 0 0 75.2882 130.2018"
/>
<path stroke="#808080" vector-effect="non-scaling-stroke" d="
  M 85.3793 130.9342
  A 1.49 1.18 1.7 0 0 83.9250 129.7105
  A 1.49 1.18 1.7 0 0 82.4007 130.8458
  A 1.49 1.18 1.7 0 0 83.8550 132.0695
  A 1.49 1.18 1.7 0 0 85.3793 130.9342"
/>
<path stroke="#808080" vector-effect="non-scaling-stroke" d="
  M 95.3334 130.9897
  A 1.36 1.21 -18.0 0 0 93.6661 130.2592
  A 1.36 1.21 -18.0 0 0 92.7466 131.8303
  A 1.36 1.21 -18.0 0 0 94.4139 132.5608
  A 1.36 1.21 -18.0 0 0 95.3334 130.9897"
/>
<path stroke="#808080" vector-effect="non-scaling-stroke" d="
  M 105.7072 131.9110
  A 1.49 1.22 3.5 0 0 104.2945 130.6023
  A 1.49 1.22 3.5 0 0 102.7328 131.7290
  A 1.49 1.22 3.5 0 0 104.1455 133.0377
  A 1.49 1.22 3.5 0 0 105.7072 131.9110"
/>
<path stroke="#808080" vector-effect="non-scaling-stroke" d="
  M 115.74 132.42
  A 1.30 1.30 0.0 0 0 114.44 131.12
  A 1.30 1.30 0.0 0 0 113.14 132.42
  A 1.30 1.30 0.0 0 0 114.44 133.72
  A 1.30 1.30 0.0 0 0 115.74 132.42"
/>
<path stroke="#808080" vector-effect="non-scaling-stroke" d="
  M 124.5061 134.2309
  A 1.40 1.19 101.7 0 0 125.9553 133.1013
  A 1.40 1.19 101.7 0 0 125.0739 131.4891
  A 1.40 1.19 101.7 0 0 123.6247 132.6187
  A 1.40 1.19 101.7 0 0 124.5061 134.2309"
/>
<path stroke="#808080" vector-effect="non-scaling-stroke" d="
  M 136.33 133.18
  A 1.35 1.35 0.0 0 0 134.98 131.83
  A 1.35 1.35 0.0 0 0 133.63 133.18
  A 1.35 1.35 0.0 0 0 134.98 134.53
  A 1.35 1.35 0.0 0 0 136.33 133.18"
/>
<path stroke="#808080" vector-effect="non-scaling-stroke" d="
  M 146.53 133.72
  A 1.34 1.34 0.0 0 0 145.19 132.38
  A 1.34 1.34 0.0 0 0 143.85 133.72
  A 1.34 1.34 0.0 0 0 145.19 135.06
  A 1.34 1.34 0.0 0 0 146.53 133.72"
/>
<path stroke="#808080" vector-effect="non-scaling-stroke" d="
  M 156.64 134.01
  A 1.35 1.35 0.0 0 0 155.29 132.66
  A 1.35 1.35 0.0 0 0 153.94 134.01
  A 1.35 1.35 0.0 0 0 155.29 135.36
  A 1.35 1.35 0.0 0 0 156.64 134.01"
/>
<path stroke="#808080" vector-effect="non-scaling-stroke" d="
  M 166.75 134.24
  A 1.35 1.35 0.0 0 0 165.40 132.89
  A 1.35 1.35 0.0 0 0 164.05 134.24
  A 1.35 1.35 0.0 0 0 165.40 135.59
  A 1.35 1.35 0.0 0 0 166.75 134.24"
/>
<path stroke="#1a6880" vector-effect="non-scaling-stroke" d="
  M 53.8409 141.1035
  A 1.23 0.91 80.6 0 0 54.5378 139.7414
  A 1.23 0.91 80.6 0 0 53.4391 138.6765
  A 1.23 0.91 80.6 0 0 52.7422 140.0386
  A 1.23 0.91 80.6 0 0 53.8409 141.1035"
/>
<path stroke="#807e0a" vector-effect="non-scaling-stroke" d="
  M 149.16 147.78
  C 148.67 145.50 147.71 143.81 149.05 141.61
  A 1.50 1.50 0.0 0 0 148.20 139.39
  Q 147.17 139.07 146.13 139.31
  A 1.47 1.46 -17.5 0 0 145.09 141.29
  C 145.50 142.29 145.88 143.11 145.54 144.25
  Q 144.03 149.38 138.85 147.57
  C 137.83 147.21 137.37 146.67 136.71 145.86
  Q 136.40 145.49 135.92 145.48
  Q 133.72 145.46 133.61 147.68
  Q 133.51 149.56 135.40 149.54
  Q 139.35 149.49 141.14 153.19
  Q 141.33 153.58 141.21 153.99
  Q 139.99 158.18 136.39 160.48
  A 1.02 1.00 -16.9 0 0 135.93 161.32
  Q 135.95 163.43 138.04 163.73
  A 1.33 1.32 -75.4 0 0 139.48 162.88
  Q 141.07 158.63 145.69 157.56
  Q 146.28 157.43 146.73 157.82
  L 150.74 161.32
  A 0.87 0.87 0.0 0 1 151.03 162.12
  C 150.44 165.48 154.14 165.56 155.34 162.89
  Q 155.92 161.62 154.62 161.12
  L 152.85 160.44
  A 1.20 1.18 1.3 0 1 152.15 159.72
  L 150.35 154.72
  Q 150.15 154.18 150.57 153.77
  Q 153.44 150.94 157.36 151.34
  A 1.82 1.82 0.0 0 0 159.34 149.26
  Q 159.06 147.37 157.24 147.26
  Q 156.79 147.24 156.48 147.57
  C 154.87 149.28 151.81 148.79 149.81 148.41
  Q 149.28 148.30 149.16 147.78"
/>
<path stroke="#808080" vector-effect="non-scaling-stroke" d="
  M 166.54 143.85
  A 1.37 1.37 0.0 0 0 165.17 142.48
  A 1.37 1.37 0.0 0 0 163.80 143.85
  A 1.37 1.37 0.0 0 0 165.17 145.22
  A 1.37 1.37 0.0 0 0 166.54 143.85"
/>
<path stroke="#1a6880" vector-effect="non-scaling-stroke" d="
  M 54.05 150.25
  A 1.02 1.02 0.0 0 0 53.03 149.23
  A 1.02 1.02 0.0 0 0 52.01 150.25
  A 1.02 1.02 0.0 0 0 53.03 151.27
  A 1.02 1.02 0.0 0 0 54.05 150.25"
/>
<path stroke="#808080" vector-effect="non-scaling-stroke" d="
  M 165.99 154.20
  A 1.33 1.33 0.0 0 0 164.66 152.87
  A 1.33 1.33 0.0 0 0 163.33 154.20
  A 1.33 1.33 0.0 0 0 164.66 155.53
  A 1.33 1.33 0.0 0 0 165.99 154.20"
/>
<path stroke="#1a6880" vector-effect="non-scaling-stroke" d="
  M 53.78 160.53
  A 1.08 1.08 0.0 0 0 52.70 159.45
  A 1.08 1.08 0.0 0 0 51.62 160.53
  A 1.08 1.08 0.0 0 0 52.70 161.61
  A 1.08 1.08 0.0 0 0 53.78 160.53"
/>
<path stroke="#808080" vector-effect="non-scaling-stroke" d="
  M 165.3274 164.9508
  A 1.50 1.27 19.1 0 0 164.3256 163.2599
  A 1.50 1.27 19.1 0 0 162.4926 163.9692
  A 1.50 1.27 19.1 0 0 163.4944 165.6601
  A 1.50 1.27 19.1 0 0 165.3274 164.9508"
/>
<path stroke="#1a6880" vector-effect="non-scaling-stroke" d="
  M 53.61 170.73
  A 1.35 1.35 0.0 0 0 52.26 169.38
  A 1.35 1.35 0.0 0 0 50.91 170.73
  A 1.35 1.35 0.0 0 0 52.26 172.08
  A 1.35 1.35 0.0 0 0 53.61 170.73"
/>
<path stroke="#808080" vector-effect="non-scaling-stroke" d="
  M 164.50 174.59
  A 1.32 1.32 0.0 0 0 163.18 173.27
  A 1.32 1.32 0.0 0 0 161.86 174.59
  A 1.32 1.32 0.0 0 0 163.18 175.91
  A 1.32 1.32 0.0 0 0 164.50 174.59"
/>
<path stroke="#808080" vector-effect="non-scaling-stroke" d="
  M 111.73 115.30
  L 107.49 103.14
  Q 106.60 100.60 105.77 103.16
  Q 105.34 104.47 103.92 106.12
  Q 101.27 109.22 98.98 112.60
  C 98.82 112.84 98.46 113.05 98.20 113.14
  A 0.41 0.41 0.0 0 1 97.66 112.77
  L 97.16 104.60
  Q 97.05 102.73 95.96 104.26
  L 92.25 109.47
  A 0.57 0.57 0.0 0 1 91.30 109.43
  L 89.47 106.33
  A 0.88 0.87 -35.5 0 0 88.14 106.11
  L 85.28 108.55
  Q 84.86 108.92 84.30 108.94
  L 77.24 109.21
  A 0.37 0.36 0.9 0 0 76.90 109.53
  L 76.87 109.83
  A 0.81 0.80 3.5 0 0 77.67 110.73
  L 84.76 110.75
  A 1.39 1.38 24.3 0 0 85.67 110.41
  L 88.10 108.27
  A 0.55 0.55 0.0 0 1 88.95 108.42
  L 90.93 112.09
  A 0.77 0.77 0.0 0 0 92.23 112.18
  L 95.22 108.05
  Q 95.72 107.36 95.82 108.21
  L 96.84 117.01
  Q 96.94 117.89 97.46 117.18
  L 105.84 105.87
  A 0.51 0.51 0.0 0 1 106.73 106.01
  L 110.79 117.65
  A 0.99 0.98 -33.5 0 0 112.45 117.98
  L 114.73 115.42
  A 0.69 0.69 0.0 0 1 115.92 115.73
  L 116.54 118.55
  A 0.48 0.48 0.0 0 0 117.35 118.80
  L 123.19 113.07
  Q 123.64 112.62 123.92 113.20
  L 124.95 115.36
  A 1.00 1.00 0.0 0 0 126.52 115.68
  C 128.23 114.16 129.30 113.06 131.78 113.21
  Q 139.72 113.69 147.47 114.18
  Q 148.12 114.22 148.16 113.57
  L 148.18 113.23
  A 0.64 0.64 0.0 0 0 147.58 112.54
  Q 139.21 111.95 130.74 111.62
  Q 128.13 111.51 127.01 113.55
  A 0.68 0.68 0.0 0 1 125.80 113.52
  L 124.39 110.64
  A 0.54 0.54 0.0 0 0 123.52 110.49
  L 118.43 115.64
  A 0.51 0.50 57.0 0 1 117.60 115.46
  L 116.52 112.58
  A 0.65 0.64 51.8 0 0 115.39 112.44
  Q 114.16 114.26 112.34 115.50
  Q 111.91 115.79 111.73 115.30"
/>
</g>
<path fill="#34cfff" d="
  M 0.00 0.00
  L 225.00 0.00
  L 225.00 225.00
  L 0.00 225.00
  L 0.00 0.00
  Z
  M 162.69 74.68
  Q 152.96 75.80 143.23 75.05
  Q 142.39 74.98 142.51 74.15
  C 143.23 69.44 142.30 65.19 140.93 60.40
  C 139.74 56.26 132.08 38.83 125.81 47.07
  C 122.82 51.00 121.27 55.81 117.56 59.99
  C 107.95 70.81 99.82 59.48 94.49 52.15
  A 2.68 2.65 85.9 0 0 93.59 51.36
  Q 89.79 49.31 89.17 53.76
  Q 88.19 60.75 87.22 67.64
  A 0.77 0.77 0.0 0 1 86.37 68.30
  C 78.72 67.40 71.81 64.90 64.62 62.92
  Q 62.26 62.27 64.42 61.12
  L 66.77 59.86
  A 1.17 1.16 42.9 0 0 66.69 57.77
  L 53.75 51.94
  A 2.77 2.77 0.0 0 0 50.88 52.32
  C 47.78 54.85 42.99 58.92 42.99 63.25
  Q 42.98 67.14 43.28 70.77
  A 1.07 1.06 73.4 0 1 42.74 71.78
  L 23.25 82.66
  Q 22.60 83.02 21.89 82.80
  Q 15.04 80.70 12.97 86.50
  C 12.27 88.45 12.70 90.35 13.89 91.95
  C 15.47 94.07 18.83 94.25 20.23 96.01
  Q 29.81 108.06 39.45 120.06
  C 40.88 121.84 41.55 125.58 43.28 128.04
  C 44.35 129.56 44.44 130.76 44.45 132.50
  Q 44.53 152.12 44.52 171.75
  Q 44.52 173.19 44.66 174.43
  Q 44.74 175.14 45.45 175.18
  L 168.39 181.70
  Q 168.81 181.72 168.88 181.31
  L 176.00 137.43
  Q 176.11 136.72 176.66 136.26
  C 179.39 133.97 181.84 131.62 185.00 129.84
  Q 194.11 124.68 203.36 119.75
  C 205.53 118.60 208.04 118.67 210.09 117.54
  C 214.74 114.97 214.68 108.15 209.98 105.59
  C 208.10 104.58 204.77 104.55 203.03 103.21
  Q 192.86 95.39 182.70 87.37
  A 1.09 1.09 0.0 0 1 182.35 86.14
  C 183.31 83.52 185.59 77.66 184.16 75.09
  Q 181.16 69.71 177.53 65.30
  A 1.96 1.96 0.0 0 0 175.45 64.67
  Q 167.73 67.04 160.58 70.80
  A 0.86 0.86 0.0 0 0 160.68 72.36
  L 162.87 73.20
  Q 165.80 74.32 162.69 74.68
  Z"
/>
<path fill="#000000" d="
  M 162.69 74.68
  Q 165.80 74.32 162.87 73.20
  L 160.68 72.36
  A 0.86 0.86 0.0 0 1 160.58 70.80
  Q 167.73 67.04 175.45 64.67
  A 1.96 1.96 0.0 0 1 177.53 65.30
  Q 181.16 69.71 184.16 75.09
  C 185.59 77.66 183.31 83.52 182.35 86.14
  A 1.09 1.09 0.0 0 0 182.70 87.37
  Q 192.86 95.39 203.03 103.21
  C 204.77 104.55 208.10 104.58 209.98 105.59
  C 214.68 108.15 214.74 114.97 210.09 117.54
  C 208.04 118.67 205.53 118.60 203.36 119.75
  Q 194.11 124.68 185.00 129.84
  C 181.84 131.62 179.39 133.97 176.66 136.26
  Q 176.11 136.72 176.00 137.43
  L 168.88 181.31
  Q 168.81 181.72 168.39 181.70
  L 45.45 175.18
  Q 44.74 175.14 44.66 174.43
  Q 44.52 173.19 44.52 171.75
  Q 44.53 152.12 44.45 132.50
  C 44.44 130.76 44.35 129.56 43.28 128.04
  C 41.55 125.58 40.88 121.84 39.45 120.06
  Q 29.81 108.06 20.23 96.01
  C 18.83 94.25 15.47 94.07 13.89 91.95
  C 12.70 90.35 12.27 88.45 12.97 86.50
  Q 15.04 80.70 21.89 82.80
  Q 22.60 83.02 23.25 82.66
  L 42.74 71.78
  A 1.07 1.06 73.4 0 0 43.28 70.77
  Q 42.98 67.14 42.99 63.25
  C 42.99 58.92 47.78 54.85 50.88 52.32
  A 2.77 2.77 0.0 0 1 53.75 51.94
  L 66.69 57.77
  A 1.17 1.16 42.9 0 1 66.77 59.86
  L 64.42 61.12
  Q 62.26 62.27 64.62 62.92
  C 71.81 64.90 78.72 67.40 86.37 68.30
  A 0.77 0.77 0.0 0 0 87.22 67.64
  Q 88.19 60.75 89.17 53.76
  Q 89.79 49.31 93.59 51.36
  A 2.68 2.65 85.9 0 1 94.49 52.15
  C 99.82 59.48 107.95 70.81 117.56 59.99
  C 121.27 55.81 122.82 51.00 125.81 47.07
  C 132.08 38.83 139.74 56.26 140.93 60.40
  C 142.30 65.19 143.23 69.44 142.51 74.15
  Q 142.39 74.98 143.23 75.05
  Q 152.96 75.80 162.69 74.68
  Z
  M 61.29 61.99
  A 0.82 0.82 0.0 0 0 60.91 60.97
  C 58.28 59.57 55.53 57.97 52.47 59.99
  Q 51.13 60.88 51.01 62.75
  C 50.69 67.70 49.49 73.09 51.94 75.99
  Q 53.31 77.61 54.75 76.05
  L 59.48 70.96
  A 1.45 1.45 0.0 0 0 59.88 69.96
  Q 59.85 65.84 61.29 61.99
  Z
  M 69.31 80.79
  Q 72.41 80.58 75.51 80.59
  Q 116.26 80.65 156.56 86.98
  Q 157.03 87.05 157.02 87.53
  L 156.17 124.97
  A 0.67 0.67 0.0 0 0 156.80 125.66
  L 168.25 126.44
  A 0.73 0.71 -71.1 0 0 168.88 126.12
  Q 172.17 121.09 178.02 123.22
  A 1.83 1.81 40.2 0 0 179.52 123.10
  L 197.52 113.14
  A 1.02 1.02 0.0 0 0 198.03 112.44
  L 198.62 109.31
  A 1.81 1.80 -64.8 0 0 198.00 107.58
  L 180.17 92.60
  A 1.49 1.48 -39.9 0 0 178.46 92.45
  C 176.06 93.85 171.93 96.18 169.37 93.87
  Q 165.39 90.31 161.44 85.69
  A 1.23 1.23 0.0 0 1 162.25 83.67
  Q 163.53 83.53 163.36 82.28
  A 0.57 0.56 87.5 0 0 162.83 81.78
  Q 158.03 81.50 153.26 80.93
  Q 114.76 76.31 76.25 71.80
  Q 68.25 70.86 63.04 69.77
  A 0.31 0.31 0.0 0 0 62.71 69.94
  L 62.55 70.26
  A 0.51 0.50 -63.9 0 0 62.78 70.94
  L 64.17 71.61
  A 1.29 1.29 0.0 0 1 64.50 73.70
  Q 59.48 78.53 54.46 81.68
  C 53.19 82.48 52.58 82.81 51.14 81.95
  Q 48.30 80.24 45.54 78.55
  A 1.56 1.54 45.8 0 0 43.95 78.52
  L 25.14 89.27
  A 1.19 1.19 0.0 0 0 24.82 91.07
  Q 35.12 103.38 45.49 116.02
  Q 46.93 117.76 50.48 119.33
  C 54.71 121.20 60.56 120.86 65.25 121.14
  A 0.72 0.71 4.6 0 0 66.01 120.50
  C 67.40 107.44 68.12 94.39 68.82 81.29
  Q 68.84 80.82 69.31 80.79
  Z
  M 169.48 82.47
  L 167.23 82.19
  A 0.56 0.56 0.0 0 0 166.65 82.99
  C 167.47 84.67 169.74 88.79 171.76 88.98
  C 175.34 89.32 175.43 82.19 175.92 79.62
  C 176.61 75.99 175.09 74.58 173.13 72.02
  C 171.87 70.36 168.75 72.53 167.49 73.21
  Q 166.31 73.84 167.61 74.13
  L 168.61 74.35
  Q 169.24 74.49 169.33 75.13
  L 170.20 81.75
  Q 170.31 82.58 169.48 82.47
  Z
  M 94.08 91.06
  A 5.19 5.19 0.0 0 0 88.89 85.87
  A 5.19 5.19 0.0 0 0 83.70 91.06
  A 5.19 5.19 0.0 0 0 88.89 96.25
  A 5.19 5.19 0.0 0 0 94.08 91.06
  Z
  M 144.01 94.81
  A 5.26 5.26 0.0 0 0 138.75 89.55
  A 5.26 5.26 0.0 0 0 133.49 94.81
  A 5.26 5.26 0.0 0 0 138.75 100.07
  A 5.26 5.26 0.0 0 0 144.01 94.81
  Z
  M 73.96 97.86
  A 0.31 0.31 0.0 0 0 73.63 98.16
  L 72.77 119.29
  A 0.31 0.31 0.0 0 0 73.07 119.61
  L 149.67 123.33
  A 0.31 0.31 0.0 0 0 150.00 123.03
  L 150.33 104.07
  A 0.31 0.31 0.0 0 0 150.05 103.76
  L 73.96 97.86
  Z
  M 55.53 129.68
  A 1.34 1.34 0.0 0 0 54.19 128.34
  A 1.34 1.34 0.0 0 0 52.85 129.68
  A 1.34 1.34 0.0 0 0 54.19 131.02
  A 1.34 1.34 0.0 0 0 55.53 129.68
  Z
  M 64.92 129.69
  A 1.30 1.30 0.0 0 0 63.62 128.39
  A 1.30 1.30 0.0 0 0 62.32 129.69
  A 1.30 1.30 0.0 0 0 63.62 130.99
  A 1.30 1.30 0.0 0 0 64.92 129.69
  Z
  M 75.2882 130.2018
  A 1.42 1.20 2.9 0 0 73.9307 128.9315
  A 1.42 1.20 2.9 0 0 72.4518 130.0582
  A 1.42 1.20 2.9 0 0 73.8093 131.3285
  A 1.42 1.20 2.9 0 0 75.2882 130.2018
  Z
  M 85.3793 130.9342
  A 1.49 1.18 1.7 0 0 83.9250 129.7105
  A 1.49 1.18 1.7 0 0 82.4007 130.8458
  A 1.49 1.18 1.7 0 0 83.8550 132.0695
  A 1.49 1.18 1.7 0 0 85.3793 130.9342
  Z
  M 95.3334 130.9897
  A 1.36 1.21 -18.0 0 0 93.6661 130.2592
  A 1.36 1.21 -18.0 0 0 92.7466 131.8303
  A 1.36 1.21 -18.0 0 0 94.4139 132.5608
  A 1.36 1.21 -18.0 0 0 95.3334 130.9897
  Z
  M 105.7072 131.9110
  A 1.49 1.22 3.5 0 0 104.2945 130.6023
  A 1.49 1.22 3.5 0 0 102.7328 131.7290
  A 1.49 1.22 3.5 0 0 104.1455 133.0377
  A 1.49 1.22 3.5 0 0 105.7072 131.9110
  Z
  M 115.74 132.42
  A 1.30 1.30 0.0 0 0 114.44 131.12
  A 1.30 1.30 0.0 0 0 113.14 132.42
  A 1.30 1.30 0.0 0 0 114.44 133.72
  A 1.30 1.30 0.0 0 0 115.74 132.42
  Z
  M 124.5061 134.2309
  A 1.40 1.19 101.7 0 0 125.9553 133.1013
  A 1.40 1.19 101.7 0 0 125.0739 131.4891
  A 1.40 1.19 101.7 0 0 123.6247 132.6187
  A 1.40 1.19 101.7 0 0 124.5061 134.2309
  Z
  M 136.33 133.18
  A 1.35 1.35 0.0 0 0 134.98 131.83
  A 1.35 1.35 0.0 0 0 133.63 133.18
  A 1.35 1.35 0.0 0 0 134.98 134.53
  A 1.35 1.35 0.0 0 0 136.33 133.18
  Z
  M 146.53 133.72
  A 1.34 1.34 0.0 0 0 145.19 132.38
  A 1.34 1.34 0.0 0 0 143.85 133.72
  A 1.34 1.34 0.0 0 0 145.19 135.06
  A 1.34 1.34 0.0 0 0 146.53 133.72
  Z
  M 156.64 134.01
  A 1.35 1.35 0.0 0 0 155.29 132.66
  A 1.35 1.35 0.0 0 0 153.94 134.01
  A 1.35 1.35 0.0 0 0 155.29 135.36
  A 1.35 1.35 0.0 0 0 156.64 134.01
  Z
  M 166.75 134.24
  A 1.35 1.35 0.0 0 0 165.40 132.89
  A 1.35 1.35 0.0 0 0 164.05 134.24
  A 1.35 1.35 0.0 0 0 165.40 135.59
  A 1.35 1.35 0.0 0 0 166.75 134.24
  Z
  M 53.8409 141.1035
  A 1.23 0.91 80.6 0 0 54.5378 139.7414
  A 1.23 0.91 80.6 0 0 53.4391 138.6765
  A 1.23 0.91 80.6 0 0 52.7422 140.0386
  A 1.23 0.91 80.6 0 0 53.8409 141.1035
  Z
  M 149.16 147.78
  C 148.67 145.50 147.71 143.81 149.05 141.61
  A 1.50 1.50 0.0 0 0 148.20 139.39
  Q 147.17 139.07 146.13 139.31
  A 1.47 1.46 -17.5 0 0 145.09 141.29
  C 145.50 142.29 145.88 143.11 145.54 144.25
  Q 144.03 149.38 138.85 147.57
  C 137.83 147.21 137.37 146.67 136.71 145.86
  Q 136.40 145.49 135.92 145.48
  Q 133.72 145.46 133.61 147.68
  Q 133.51 149.56 135.40 149.54
  Q 139.35 149.49 141.14 153.19
  Q 141.33 153.58 141.21 153.99
  Q 139.99 158.18 136.39 160.48
  A 1.02 1.00 -16.9 0 0 135.93 161.32
  Q 135.95 163.43 138.04 163.73
  A 1.33 1.32 -75.4 0 0 139.48 162.88
  Q 141.07 158.63 145.69 157.56
  Q 146.28 157.43 146.73 157.82
  L 150.74 161.32
  A 0.87 0.87 0.0 0 1 151.03 162.12
  C 150.44 165.48 154.14 165.56 155.34 162.89
  Q 155.92 161.62 154.62 161.12
  L 152.85 160.44
  A 1.20 1.18 1.3 0 1 152.15 159.72
  L 150.35 154.72
  Q 150.15 154.18 150.57 153.77
  Q 153.44 150.94 157.36 151.34
  A 1.82 1.82 0.0 0 0 159.34 149.26
  Q 159.06 147.37 157.24 147.26
  Q 156.79 147.24 156.48 147.57
  C 154.87 149.28 151.81 148.79 149.81 148.41
  Q 149.28 148.30 149.16 147.78
  Z
  M 166.54 143.85
  A 1.37 1.37 0.0 0 0 165.17 142.48
  A 1.37 1.37 0.0 0 0 163.80 143.85
  A 1.37 1.37 0.0 0 0 165.17 145.22
  A 1.37 1.37 0.0 0 0 166.54 143.85
  Z
  M 54.05 150.25
  A 1.02 1.02 0.0 0 0 53.03 149.23
  A 1.02 1.02 0.0 0 0 52.01 150.25
  A 1.02 1.02 0.0 0 0 53.03 151.27
  A 1.02 1.02 0.0 0 0 54.05 150.25
  Z
  M 165.99 154.20
  A 1.33 1.33 0.0 0 0 164.66 152.87
  A 1.33 1.33 0.0 0 0 163.33 154.20
  A 1.33 1.33 0.0 0 0 164.66 155.53
  A 1.33 1.33 0.0 0 0 165.99 154.20
  Z
  M 53.78 160.53
  A 1.08 1.08 0.0 0 0 52.70 159.45
  A 1.08 1.08 0.0 0 0 51.62 160.53
  A 1.08 1.08 0.0 0 0 52.70 161.61
  A 1.08 1.08 0.0 0 0 53.78 160.53
  Z
  M 165.3274 164.9508
  A 1.50 1.27 19.1 0 0 164.3256 163.2599
  A 1.50 1.27 19.1 0 0 162.4926 163.9692
  A 1.50 1.27 19.1 0 0 163.4944 165.6601
  A 1.50 1.27 19.1 0 0 165.3274 164.9508
  Z
  M 53.61 170.73
  A 1.35 1.35 0.0 0 0 52.26 169.38
  A 1.35 1.35 0.0 0 0 50.91 170.73
  A 1.35 1.35 0.0 0 0 52.26 172.08
  A 1.35 1.35 0.0 0 0 53.61 170.73
  Z
  M 164.50 174.59
  A 1.32 1.32 0.0 0 0 163.18 173.27
  A 1.32 1.32 0.0 0 0 161.86 174.59
  A 1.32 1.32 0.0 0 0 163.18 175.91
  A 1.32 1.32 0.0 0 0 164.50 174.59
  Z"
/>
<path fill="#34cfff" d="
  M 61.29 61.99
  Q 59.85 65.84 59.88 69.96
  A 1.45 1.45 0.0 0 1 59.48 70.96
  L 54.75 76.05
  Q 53.31 77.61 51.94 75.99
  C 49.49 73.09 50.69 67.70 51.01 62.75
  Q 51.13 60.88 52.47 59.99
  C 55.53 57.97 58.28 59.57 60.91 60.97
  A 0.82 0.82 0.0 0 1 61.29 61.99
  Z"
/>
<path fill="#34cfff" d="
  M 68.82 81.29
  C 68.12 94.39 67.40 107.44 66.01 120.50
  A 0.72 0.71 4.6 0 1 65.25 121.14
  C 60.56 120.86 54.71 121.20 50.48 119.33
  Q 46.93 117.76 45.49 116.02
  Q 35.12 103.38 24.82 91.07
  A 1.19 1.19 0.0 0 1 25.14 89.27
  L 43.95 78.52
  A 1.56 1.54 45.8 0 1 45.54 78.55
  Q 48.30 80.24 51.14 81.95
  C 52.58 82.81 53.19 82.48 54.46 81.68
  Q 59.48 78.53 64.50 73.70
  A 1.29 1.29 0.0 0 0 64.17 71.61
  L 62.78 70.94
  A 0.51 0.50 -63.9 0 1 62.55 70.26
  L 62.71 69.94
  A 0.31 0.31 0.0 0 1 63.04 69.77
  Q 68.25 70.86 76.25 71.80
  Q 114.76 76.31 153.26 80.93
  Q 158.03 81.50 162.83 81.78
  A 0.57 0.56 87.5 0 1 163.36 82.28
  Q 163.53 83.53 162.25 83.67
  A 1.23 1.23 0.0 0 0 161.44 85.69
  Q 165.39 90.31 169.37 93.87
  C 171.93 96.18 176.06 93.85 178.46 92.45
  A 1.49 1.48 -39.9 0 1 180.17 92.60
  L 198.00 107.58
  A 1.81 1.80 -64.8 0 1 198.62 109.31
  L 198.03 112.44
  A 1.02 1.02 0.0 0 1 197.52 113.14
  L 179.52 123.10
  A 1.83 1.81 40.2 0 1 178.02 123.22
  Q 172.17 121.09 168.88 126.12
  A 0.73 0.71 -71.1 0 1 168.25 126.44
  L 156.80 125.66
  A 0.67 0.67 0.0 0 1 156.17 124.97
  L 157.02 87.53
  Q 157.03 87.05 156.56 86.98
  Q 116.26 80.65 75.51 80.59
  Q 72.41 80.58 69.31 80.79
  Q 68.84 80.82 68.82 81.29
  Z"
/>
<path fill="#34cfff" d="
  M 170.20 81.75
  L 169.33 75.13
  Q 169.24 74.49 168.61 74.35
  L 167.61 74.13
  Q 166.31 73.84 167.49 73.21
  C 168.75 72.53 171.87 70.36 173.13 72.02
  C 175.09 74.58 176.61 75.99 175.92 79.62
  C 175.43 82.19 175.34 89.32 171.76 88.98
  C 169.74 88.79 167.47 84.67 166.65 82.99
  A 0.56 0.56 0.0 0 1 167.23 82.19
  L 169.48 82.47
  Q 170.31 82.58 170.20 81.75
  Z"
/>
<circle fill="#ffffff" cx="88.89" cy="91.06" r="5.19"/>
<circle fill="#ffffff" cx="138.75" cy="94.81" r="5.26"/>
<path fill="#ffffff" d="
  M 73.96 97.86
  L 150.05 103.76
  A 0.31 0.31 0.0 0 1 150.33 104.07
  L 150.00 123.03
  A 0.31 0.31 0.0 0 1 149.67 123.33
  L 73.07 119.61
  A 0.31 0.31 0.0 0 1 72.77 119.29
  L 73.63 98.16
  A 0.31 0.31 0.0 0 1 73.96 97.86
  Z
  M 111.73 115.30
  L 107.49 103.14
  Q 106.60 100.60 105.77 103.16
  Q 105.34 104.47 103.92 106.12
  Q 101.27 109.22 98.98 112.60
  C 98.82 112.84 98.46 113.05 98.20 113.14
  A 0.41 0.41 0.0 0 1 97.66 112.77
  L 97.16 104.60
  Q 97.05 102.73 95.96 104.26
  L 92.25 109.47
  A 0.57 0.57 0.0 0 1 91.30 109.43
  L 89.47 106.33
  A 0.88 0.87 -35.5 0 0 88.14 106.11
  L 85.28 108.55
  Q 84.86 108.92 84.30 108.94
  L 77.24 109.21
  A 0.37 0.36 0.9 0 0 76.90 109.53
  L 76.87 109.83
  A 0.81 0.80 3.5 0 0 77.67 110.73
  L 84.76 110.75
  A 1.39 1.38 24.3 0 0 85.67 110.41
  L 88.10 108.27
  A 0.55 0.55 0.0 0 1 88.95 108.42
  L 90.93 112.09
  A 0.77 0.77 0.0 0 0 92.23 112.18
  L 95.22 108.05
  Q 95.72 107.36 95.82 108.21
  L 96.84 117.01
  Q 96.94 117.89 97.46 117.18
  L 105.84 105.87
  A 0.51 0.51 0.0 0 1 106.73 106.01
  L 110.79 117.65
  A 0.99 0.98 -33.5 0 0 112.45 117.98
  L 114.73 115.42
  A 0.69 0.69 0.0 0 1 115.92 115.73
  L 116.54 118.55
  A 0.48 0.48 0.0 0 0 117.35 118.80
  L 123.19 113.07
  Q 123.64 112.62 123.92 113.20
  L 124.95 115.36
  A 1.00 1.00 0.0 0 0 126.52 115.68
  C 128.23 114.16 129.30 113.06 131.78 113.21
  Q 139.72 113.69 147.47 114.18
  Q 148.12 114.22 148.16 113.57
  L 148.18 113.23
  A 0.64 0.64 0.0 0 0 147.58 112.54
  Q 139.21 111.95 130.74 111.62
  Q 128.13 111.51 127.01 113.55
  A 0.68 0.68 0.0 0 1 125.80 113.52
  L 124.39 110.64
  A 0.54 0.54 0.0 0 0 123.52 110.49
  L 118.43 115.64
  A 0.51 0.50 57.0 0 1 117.60 115.46
  L 116.52 112.58
  A 0.65 0.64 51.8 0 0 115.39 112.44
  Q 114.16 114.26 112.34 115.50
  Q 111.91 115.79 111.73 115.30
  Z"
/>
<path fill="#000000" d="
  M 112.34 115.50
  Q 114.16 114.26 115.39 112.44
  A 0.65 0.64 51.8 0 1 116.52 112.58
  L 117.60 115.46
  A 0.51 0.50 57.0 0 0 118.43 115.64
  L 123.52 110.49
  A 0.54 0.54 0.0 0 1 124.39 110.64
  L 125.80 113.52
  A 0.68 0.68 0.0 0 0 127.01 113.55
  Q 128.13 111.51 130.74 111.62
  Q 139.21 111.95 147.58 112.54
  A 0.64 0.64 0.0 0 1 148.18 113.23
  L 148.16 113.57
  Q 148.12 114.22 147.47 114.18
  Q 139.72 113.69 131.78 113.21
  C 129.30 113.06 128.23 114.16 126.52 115.68
  A 1.00 1.00 0.0 0 1 124.95 115.36
  L 123.92 113.20
  Q 123.64 112.62 123.19 113.07
  L 117.35 118.80
  A 0.48 0.48 0.0 0 1 116.54 118.55
  L 115.92 115.73
  A 0.69 0.69 0.0 0 0 114.73 115.42
  L 112.45 117.98
  A 0.99 0.98 -33.5 0 1 110.79 117.65
  L 106.73 106.01
  A 0.51 0.51 0.0 0 0 105.84 105.87
  L 97.46 117.18
  Q 96.94 117.89 96.84 117.01
  L 95.82 108.21
  Q 95.72 107.36 95.22 108.05
  L 92.23 112.18
  A 0.77 0.77 0.0 0 1 90.93 112.09
  L 88.95 108.42
  A 0.55 0.55 0.0 0 0 88.10 108.27
  L 85.67 110.41
  A 1.39 1.38 24.3 0 1 84.76 110.75
  L 77.67 110.73
  A 0.81 0.80 3.5 0 1 76.87 109.83
  L 76.90 109.53
  A 0.37 0.36 0.9 0 1 77.24 109.21
  L 84.30 108.94
  Q 84.86 108.92 85.28 108.55
  L 88.14 106.11
  A 0.88 0.87 -35.5 0 1 89.47 106.33
  L 91.30 109.43
  A 0.57 0.57 0.0 0 0 92.25 109.47
  L 95.96 104.26
  Q 97.05 102.73 97.16 104.60
  L 97.66 112.77
  A 0.41 0.41 0.0 0 0 98.20 113.14
  C 98.46 113.05 98.82 112.84 98.98 112.60
  Q 101.27 109.22 103.92 106.12
  Q 105.34 104.47 105.77 103.16
  Q 106.60 100.60 107.49 103.14
  L 111.73 115.30
  Q 111.91 115.79 112.34 115.50
  Z"
/>
<circle fill="#34cfff" cx="54.19" cy="129.68" r="1.34"/>
<circle fill="#ffffff" cx="63.62" cy="129.69" r="1.30"/>
<ellipse fill="#ffffff" cx="0.00" cy="0.00" transform="translate(73.87,130.13) rotate(2.9)" rx="1.42" ry="1.20"/>
<ellipse fill="#ffffff" cx="0.00" cy="0.00" transform="translate(83.89,130.89) rotate(1.7)" rx="1.49" ry="1.18"/>
<ellipse fill="#ffffff" cx="0.00" cy="0.00" transform="translate(94.04,131.41) rotate(-18.0)" rx="1.36" ry="1.21"/>
<ellipse fill="#ffffff" cx="0.00" cy="0.00" transform="translate(104.22,131.82) rotate(3.5)" rx="1.49" ry="1.22"/>
<circle fill="#ffffff" cx="114.44" cy="132.42" r="1.30"/>
<ellipse fill="#ffffff" cx="0.00" cy="0.00" transform="translate(124.79,132.86) rotate(101.7)" rx="1.40" ry="1.19"/>
<circle fill="#ffffff" cx="134.98" cy="133.18" r="1.35"/>
<circle fill="#ffffff" cx="145.19" cy="133.72" r="1.34"/>
<circle fill="#ffffff" cx="155.29" cy="134.01" r="1.35"/>
<circle fill="#ffffff" cx="165.40" cy="134.24" r="1.35"/>
<ellipse fill="#34cfff" cx="0.00" cy="0.00" transform="translate(53.64,139.89) rotate(80.6)" rx="1.23" ry="0.91"/>
<path fill="#fffb14" d="
  M 149.81 148.41
  C 151.81 148.79 154.87 149.28 156.48 147.57
  Q 156.79 147.24 157.24 147.26
  Q 159.06 147.37 159.34 149.26
  A 1.82 1.82 0.0 0 1 157.36 151.34
  Q 153.44 150.94 150.57 153.77
  Q 150.15 154.18 150.35 154.72
  L 152.15 159.72
  A 1.20 1.18 1.3 0 0 152.85 160.44
  L 154.62 161.12
  Q 155.92 161.62 155.34 162.89
  C 154.14 165.56 150.44 165.48 151.03 162.12
  A 0.87 0.87 0.0 0 0 150.74 161.32
  L 146.73 157.82
  Q 146.28 157.43 145.69 157.56
  Q 141.07 158.63 139.48 162.88
  A 1.33 1.32 -75.4 0 1 138.04 163.73
  Q 135.95 163.43 135.93 161.32
  A 1.02 1.00 -16.9 0 1 136.39 160.48
  Q 139.99 158.18 141.21 153.99
  Q 141.33 153.58 141.14 153.19
  Q 139.35 149.49 135.40 149.54
  Q 133.51 149.56 133.61 147.68
  Q 133.72 145.46 135.92 145.48
  Q 136.40 145.49 136.71 145.86
  C 137.37 146.67 137.83 147.21 138.85 147.57
  Q 144.03 149.38 145.54 144.25
  C 145.88 143.11 145.50 142.29 145.09 141.29
  A 1.47 1.46 -17.5 0 1 146.13 139.31
  Q 147.17 139.07 148.20 139.39
  A 1.50 1.50 0.0 0 1 149.05 141.61
  C 147.71 143.81 148.67 145.50 149.16 147.78
  Q 149.28 148.30 149.81 148.41
  Z"
/>
<circle fill="#ffffff" cx="165.17" cy="143.85" r="1.37"/>
<circle fill="#34cfff" cx="53.03" cy="150.25" r="1.02"/>
<circle fill="#ffffff" cx="164.66" cy="154.20" r="1.33"/>
<circle fill="#34cfff" cx="52.70" cy="160.53" r="1.08"/>
<ellipse fill="#ffffff" cx="0.00" cy="0.00" transform="translate(163.91,164.46) rotate(19.1)" rx="1.50" ry="1.27"/>
<circle fill="#34cfff" cx="52.26" cy="170.73" r="1.35"/>
<circle fill="#ffffff" cx="163.18" cy="174.59" r="1.32"/>
</svg>
