<?xml version="1.0" encoding="UTF-8" standalone="no"?>
<!DOCTYPE svg PUBLIC "-//W3C//DTD SVG 1.1//EN" "http://www.w3.org/Graphics/SVG/1.1/DTD/svg11.dtd">
<svg xmlns="http://www.w3.org/2000/svg" version="1.1" viewBox="0.00 0.00 150.00 202.00">
<g stroke-width="1.60" fill="none" stroke-linecap="butt">
<path stroke="#8b721a" vector-effect="non-scaling-stroke" d="
  M 62.96 45.63
  C 68.16 34.68 77.49 29.46 89.27 27.83
  Q 91.79 27.49 89.26 27.25
  C 77.64 26.17 66.53 27.90 57.44 35.19
  C 51.28 40.12 47.25 46.97 47.00 54.76
  C 46.51 70.51 57.44 82.84 71.32 88.91
  C 83.31 94.15 98.30 99.78 92.59 114.78
  Q 91.79 116.88 93.11 115.06
  C 101.69 103.23 95.25 92.63 85.45 84.88
  C 73.81 75.67 55.69 60.94 62.96 45.63"
/>
<path stroke="#8b721a" vector-effect="non-scaling-stroke" d="
  M 83.76 37.81
  A 0.32 0.32 0.0 0 1 83.58 37.63
  L 82.01 33.76
  A 0.32 0.32 0.0 0 0 81.41 33.76
  L 79.85 37.64
  A 0.32 0.32 0.0 0 1 79.67 37.82
  L 75.80 39.39
  A 0.32 0.32 0.0 0 0 75.80 39.99
  L 79.68 41.55
  A 0.32 0.32 0.0 0 1 79.86 41.73
  L 81.43 45.60
  A 0.32 0.32 0.0 0 0 82.03 45.60
  L 83.59 41.72
  A 0.32 0.32 0.0 0 1 83.77 41.54
  L 87.64 39.97
  A 0.32 0.32 0.0 0 0 87.64 39.37
  L 83.76 37.81"
/>
<path stroke="#8b721a" vector-effect="non-scaling-stroke" d="
  M 54.92 34.78
  C 39.08 42.75 29.09 59.70 36.34 77.28
  C 41.60 90.03 54.73 96.32 67.26 99.49
  C 75.56 101.59 91.62 104.02 88.66 116.72
  Q 88.52 117.32 88.97 116.89
  Q 89.83 116.09 90.24 115.20
  C 95.30 104.41 88.84 98.82 79.79 94.71
  Q 73.63 91.92 67.61 88.81
  C 47.20 78.25 35.30 53.62 55.21 35.20
  Q 56.55 33.96 54.92 34.78"
/>
<path stroke="#8b721a" vector-effect="non-scaling-stroke" d="
  M 114.84 83.02
  L 115.59 97.96
  Q 115.61 98.53 115.04 98.52
  L 113.47 98.48
  Q 112.79 98.46 112.60 99.12
  L 110.63 105.89
  Q 110.45 106.49 111.07 106.41
  C 114.07 106.06 119.19 104.80 119.40 100.96
  Q 120.01 89.85 120.71 78.75
  Q 120.80 77.34 120.75 75.91
  Q 120.73 75.35 120.34 74.95
  L 116.30 70.93
  A 0.94 0.94 0.0 0 0 114.87 71.06
  C 112.70 74.14 103.28 83.39 99.00 81.31
  Q 92.26 78.03 93.24 70.93
  C 93.54 68.74 94.84 66.90 97.26 67.49
  C 100.29 68.22 102.77 72.99 103.48 75.62
  Q 104.08 77.83 105.96 76.53
  L 109.23 74.28
  A 3.73 3.71 -23.2 0 0 110.76 70.48
  L 106.67 50.28
  Q 106.44 49.15 105.92 50.18
  L 103.89 54.23
  Q 103.65 54.71 103.15 54.49
  C 88.89 48.01 78.24 57.28 71.58 68.92
  A 0.49 0.49 0.0 0 0 71.65 69.50
  Q 78.80 76.94 86.49 83.54
  C 96.85 92.45 103.88 103.85 94.29 116.21
  Q 94.16 116.39 94.32 116.53
  L 94.33 116.54
  Q 94.49 116.69 94.65 116.53
  C 104.88 106.67 111.65 97.23 114.46 83.00
  Q 114.76 81.45 114.84 83.02"
/>
<path stroke="#8b721a" vector-effect="non-scaling-stroke" d="
  M 32.03 61.88
  Q 32.14 61.68 32.13 61.64
  A 0.17 0.17 0.0 0 0 31.80 61.59
  Q 27.54 74.98 31.08 88.67
  C 36.15 108.24 58.00 111.17 75.12 112.33
  C 78.27 112.54 85.99 113.90 84.39 118.93
  A 0.30 0.30 0.0 0 0 84.92 119.20
  C 90.74 111.13 83.03 105.07 75.76 103.49
  C 53.71 98.67 30.96 89.36 31.97 62.13
  Q 31.97 62.00 32.03 61.88"
/>
<path stroke="#8b721a" vector-effect="non-scaling-stroke" d="
  M 36.67 103.07
  C 44.98 115.90 58.93 125.16 74.74 124.16
  Q 78.36 123.93 80.72 122.47
  C 84.86 119.92 82.60 114.91 78.50 114.27
  C 73.70 113.53 67.61 113.90 63.18 113.29
  Q 48.69 111.32 36.88 102.87
  Q 36.26 102.43 36.67 103.07"
/>
<path stroke="#918f90" vector-effect="non-scaling-stroke" d="
  M 91.81 147.19
  C 86.90 143.03 80.76 141.93 74.43 143.65
  C 65.24 146.15 61.02 156.74 64.13 165.34
  C 68.44 177.25 84.05 179.12 92.44 170.22
  A 0.30 0.29 -45.7 0 0 92.44 169.81
  L 88.06 165.43
  Q 87.87 165.25 87.68 165.44
  C 79.83 173.96 67.17 165.95 71.34 155.48
  C 74.02 148.77 81.82 147.62 87.05 152.62
  Q 87.72 153.26 88.33 152.56
  L 91.91 148.44
  Q 92.49 147.77 91.81 147.19"
/>
<path stroke="#918f90" vector-effect="non-scaling-stroke" d="
  M 49.02 162.49
  C 48.76 171.70 35.90 170.73 35.81 162.74
  Q 35.70 153.06 35.77 143.81
  Q 35.77 143.50 35.46 143.50
  L 28.79 143.50
  Q 28.50 143.50 28.50 143.79
  Q 28.49 152.41 28.61 161.50
  Q 28.65 164.79 29.26 166.99
  C 32.92 180.28 56.20 178.23 56.24 163.50
  Q 56.26 153.45 56.25 143.79
  Q 56.25 143.50 55.96 143.50
  L 49.54 143.50
  Q 49.24 143.50 49.24 143.80
  Q 49.28 152.95 49.02 162.49"
/>
<path stroke="#918f90" vector-effect="non-scaling-stroke" d="
  M 106.25 150.30
  A 0.30 0.30 0.0 0 1 106.55 150.00
  L 123.21 150.00
  A 0.30 0.30 0.0 0 0 123.51 149.70
  L 123.50 143.80
  A 0.30 0.30 0.0 0 0 123.20 143.50
  L 99.55 143.50
  A 0.30 0.30 0.0 0 0 99.25 143.80
  L 99.25 174.95
  A 0.30 0.30 0.0 0 0 99.55 175.25
  L 105.95 175.25
  A 0.30 0.30 0.0 0 0 106.25 174.95
  L 106.25 163.30
  A 0.30 0.30 0.0 0 1 106.55 163.00
  L 121.21 163.00
  A 0.30 0.30 0.0 0 0 121.51 162.70
  L 121.50 156.80
  A 0.30 0.30 0.0 0 0 121.20 156.50
  L 106.55 156.50
  A 0.30 0.30 0.0 0 1 106.25 156.20
  L 106.25 150.30"
/>
</g>
<path fill="#231f20" d="
  M 0.00 0.00
  L 150.00 0.00
  L 150.00 202.00
  L 0.00 202.00
  L 0.00 0.00
  Z
  M 62.96 45.63
  C 68.16 34.68 77.49 29.46 89.27 27.83
  Q 91.79 27.49 89.26 27.25
  C 77.64 26.17 66.53 27.90 57.44 35.19
  C 51.28 40.12 47.25 46.97 47.00 54.76
  C 46.51 70.51 57.44 82.84 71.32 88.91
  C 83.31 94.15 98.30 99.78 92.59 114.78
  Q 91.79 116.88 93.11 115.06
  C 101.69 103.23 95.25 92.63 85.45 84.88
  C 73.81 75.67 55.69 60.94 62.96 45.63
  Z
  M 83.76 37.81
  A 0.32 0.32 0.0 0 1 83.58 37.63
  L 82.01 33.76
  A 0.32 0.32 0.0 0 0 81.41 33.76
  L 79.85 37.64
  A 0.32 0.32 0.0 0 1 79.67 37.82
  L 75.80 39.39
  A 0.32 0.32 0.0 0 0 75.80 39.99
  L 79.68 41.55
  A 0.32 0.32 0.0 0 1 79.86 41.73
  L 81.43 45.60
  A 0.32 0.32 0.0 0 0 82.03 45.60
  L 83.59 41.72
  A 0.32 0.32 0.0 0 1 83.77 41.54
  L 87.64 39.97
  A 0.32 0.32 0.0 0 0 87.64 39.37
  L 83.76 37.81
  Z
  M 54.92 34.78
  C 39.08 42.75 29.09 59.70 36.34 77.28
  C 41.60 90.03 54.73 96.32 67.26 99.49
  C 75.56 101.59 91.62 104.02 88.66 116.72
  Q 88.52 117.32 88.97 116.89
  Q 89.83 116.09 90.24 115.20
  C 95.30 104.41 88.84 98.82 79.79 94.71
  Q 73.63 91.92 67.61 88.81
  C 47.20 78.25 35.30 53.62 55.21 35.20
  Q 56.55 33.96 54.92 34.78
  Z
  M 114.84 83.02
  L 115.59 97.96
  Q 115.61 98.53 115.04 98.52
  L 113.47 98.48
  Q 112.79 98.46 112.60 99.12
  L 110.63 105.89
  Q 110.45 106.49 111.07 106.41
  C 114.07 106.06 119.19 104.80 119.40 100.96
  Q 120.01 89.85 120.71 78.75
  Q 120.80 77.34 120.75 75.91
  Q 120.73 75.35 120.34 74.95
  L 116.30 70.93
  A 0.94 0.94 0.0 0 0 114.87 71.06
  C 112.70 74.14 103.28 83.39 99.00 81.31
  Q 92.26 78.03 93.24 70.93
  C 93.54 68.74 94.84 66.90 97.26 67.49
  C 100.29 68.22 102.77 72.99 103.48 75.62
  Q 104.08 77.83 105.96 76.53
  L 109.23 74.28
  A 3.73 3.71 -23.2 0 0 110.76 70.48
  L 106.67 50.28
  Q 106.44 49.15 105.92 50.18
  L 103.89 54.23
  Q 103.65 54.71 103.15 54.49
  C 88.89 48.01 78.24 57.28 71.58 68.92
  A 0.49 0.49 0.0 0 0 71.65 69.50
  Q 78.80 76.94 86.49 83.54
  C 96.85 92.45 103.88 103.85 94.29 116.21
  Q 94.16 116.39 94.32 116.53
  L 94.33 116.54
  Q 94.49 116.69 94.65 116.53
  C 104.88 106.67 111.65 97.23 114.46 83.00
  Q 114.76 81.45 114.84 83.02
  Z
  M 32.03 61.88
  Q 32.14 61.68 32.13 61.64
  A 0.17 0.17 0.0 0 0 31.80 61.59
  Q 27.54 74.98 31.08 88.67
  C 36.15 108.24 58.00 111.17 75.12 112.33
  C 78.27 112.54 85.99 113.90 84.39 118.93
  A 0.30 0.30 0.0 0 0 84.92 119.20
  C 90.74 111.13 83.03 105.07 75.76 103.49
  C 53.71 98.67 30.96 89.36 31.97 62.13
  Q 31.97 62.00 32.03 61.88
  Z
  M 36.67 103.07
  C 44.98 115.90 58.93 125.16 74.74 124.16
  Q 78.36 123.93 80.72 122.47
  C 84.86 119.92 82.60 114.91 78.50 114.27
  C 73.70 113.53 67.61 113.90 63.18 113.29
  Q 48.69 111.32 36.88 102.87
  Q 36.26 102.43 36.67 103.07
  Z
  M 91.81 147.19
  C 86.90 143.03 80.76 141.93 74.43 143.65
  C 65.24 146.15 61.02 156.74 64.13 165.34
  C 68.44 177.25 84.05 179.12 92.44 170.22
  A 0.30 0.29 -45.7 0 0 92.44 169.81
  L 88.06 165.43
  Q 87.87 165.25 87.68 165.44
  C 79.83 173.96 67.17 165.95 71.34 155.48
  C 74.02 148.77 81.82 147.62 87.05 152.62
  Q 87.72 153.26 88.33 152.56
  L 91.91 148.44
  Q 92.49 147.77 91.81 147.19
  Z
  M 49.02 162.49
  C 48.76 171.70 35.90 170.73 35.81 162.74
  Q 35.70 153.06 35.77 143.81
  Q 35.77 143.50 35.46 143.50
  L 28.79 143.50
  Q 28.50 143.50 28.50 143.79
  Q 28.49 152.41 28.61 161.50
  Q 28.65 164.79 29.26 166.99
  C 32.92 180.28 56.20 178.23 56.24 163.50
  Q 56.26 153.45 56.25 143.79
  Q 56.25 143.50 55.96 143.50
  L 49.54 143.50
  Q 49.24 143.50 49.24 143.80
  Q 49.28 152.95 49.02 162.49
  Z
  M 106.25 150.30
  A 0.30 0.30 0.0 0 1 106.55 150.00
  L 123.21 150.00
  A 0.30 0.30 0.0 0 0 123.51 149.70
  L 123.50 143.80
  A 0.30 0.30 0.0 0 0 123.20 143.50
  L 99.55 143.50
  A 0.30 0.30 0.0 0 0 99.25 143.80
  L 99.25 174.95
  A 0.30 0.30 0.0 0 0 99.55 175.25
  L 105.95 175.25
  A 0.30 0.30 0.0 0 0 106.25 174.95
  L 106.25 163.30
  A 0.30 0.30 0.0 0 1 106.55 163.00
  L 121.21 163.00
  A 0.30 0.30 0.0 0 0 121.51 162.70
  L 121.50 156.80
  A 0.30 0.30 0.0 0 0 121.20 156.50
  L 106.55 156.50
  A 0.30 0.30 0.0 0 1 106.25 156.20
  L 106.25 150.30
  Z"
/>
<path fill="#f2c413" d="
  M 62.96 45.63
  C 55.69 60.94 73.81 75.67 85.45 84.88
  C 95.25 92.63 101.69 103.23 93.11 115.06
  Q 91.79 116.88 92.59 114.78
  C 98.30 99.78 83.31 94.15 71.32 88.91
  C 57.44 82.84 46.51 70.51 47.00 54.76
  C 47.25 46.97 51.28 40.12 57.44 35.19
  C 66.53 27.90 77.64 26.17 89.26 27.25
  Q 91.79 27.49 89.27 27.83
  C 77.49 29.46 68.16 34.68 62.96 45.63
  Z"
/>
<path fill="#f2c413" d="
  M 83.76 37.81
  L 87.64 39.37
  A 0.32 0.32 0.0 0 1 87.64 39.97
  L 83.77 41.54
  A 0.32 0.32 0.0 0 0 83.59 41.72
  L 82.03 45.60
  A 0.32 0.32 0.0 0 1 81.43 45.60
  L 79.86 41.73
  A 0.32 0.32 0.0 0 0 79.68 41.55
  L 75.80 39.99
  A 0.32 0.32 0.0 0 1 75.80 39.39
  L 79.67 37.82
  A 0.32 0.32 0.0 0 0 79.85 37.64
  L 81.41 33.76
  A 0.32 0.32 0.0 0 1 82.01 33.76
  L 83.58 37.63
  A 0.32 0.32 0.0 0 0 83.76 37.81
  Z"
/>
<path fill="#f2c413" d="
  M 36.34 77.28
  C 29.09 59.70 39.08 42.75 54.92 34.78
  Q 56.55 33.96 55.21 35.20
  C 35.30 53.62 47.20 78.25 67.61 88.81
  Q 73.63 91.92 79.79 94.71
  C 88.84 98.82 95.30 104.41 90.24 115.20
  Q 89.83 116.09 88.97 116.89
  Q 88.52 117.32 88.66 116.72
  C 91.62 104.02 75.56 101.59 67.26 99.49
  C 54.73 96.32 41.60 90.03 36.34 77.28
  Z"
/>
<path fill="#f2c413" d="
  M 114.46 83.00
  C 111.65 97.23 104.88 106.67 94.65 116.53
  Q 94.49 116.69 94.33 116.54
  L 94.32 116.53
  Q 94.16 116.39 94.29 116.21
  C 103.88 103.85 96.85 92.45 86.49 83.54
  Q 78.80 76.94 71.65 69.50
  A 0.49 0.49 0.0 0 1 71.58 68.92
  C 78.24 57.28 88.89 48.01 103.15 54.49
  Q 103.65 54.71 103.89 54.23
  L 105.92 50.18
  Q 106.44 49.15 106.67 50.28
  L 110.76 70.48
  A 3.73 3.71 -23.2 0 1 109.23 74.28
  L 105.96 76.53
  Q 104.08 77.83 103.48 75.62
  C 102.77 72.99 100.29 68.22 97.26 67.49
  C 94.84 66.90 93.54 68.74 93.24 70.93
  Q 92.26 78.03 99.00 81.31
  C 103.28 83.39 112.70 74.14 114.87 71.06
  A 0.94 0.94 0.0 0 1 116.30 70.93
  L 120.34 74.95
  Q 120.73 75.35 120.75 75.91
  Q 120.80 77.34 120.71 78.75
  Q 120.01 89.85 119.40 100.96
  C 119.19 104.80 114.07 106.06 111.07 106.41
  Q 110.45 106.49 110.63 105.89
  L 112.60 99.12
  Q 112.79 98.46 113.47 98.48
  L 115.04 98.52
  Q 115.61 98.53 115.59 97.96
  L 114.84 83.02
  Q 114.76 81.45 114.46 83.00
  Z"
/>
<path fill="#f2c413" d="
  M 31.97 62.13
  C 30.96 89.36 53.71 98.67 75.76 103.49
  C 83.03 105.07 90.74 111.13 84.92 119.20
  A 0.30 0.30 0.0 0 1 84.39 118.93
  C 85.99 113.90 78.27 112.54 75.12 112.33
  C 58.00 111.17 36.15 108.24 31.08 88.67
  Q 27.54 74.98 31.80 61.59
  A 0.17 0.17 0.0 0 1 32.13 61.64
  Q 32.14 61.68 32.03 61.88
  Q 31.97 62.00 31.97 62.13
  Z"
/>
<path fill="#f2c413" d="
  M 74.74 124.16
  C 58.93 125.16 44.98 115.90 36.67 103.07
  Q 36.26 102.43 36.88 102.87
  Q 48.69 111.32 63.18 113.29
  C 67.61 113.90 73.70 113.53 78.50 114.27
  C 82.60 114.91 84.86 119.92 80.72 122.47
  Q 78.36 123.93 74.74 124.16
  Z"
/>
<path fill="#ffffff" d="
  M 74.43 143.65
  C 80.76 141.93 86.90 143.03 91.81 147.19
  Q 92.49 147.77 91.91 148.44
  L 88.33 152.56
  Q 87.72 153.26 87.05 152.62
  C 81.82 147.62 74.02 148.77 71.34 155.48
  C 67.17 165.95 79.83 173.96 87.68 165.44
  Q 87.87 165.25 88.06 165.43
  L 92.44 169.81
  A 0.30 0.29 -45.7 0 1 92.44 170.22
  C 84.05 179.12 68.44 177.25 64.13 165.34
  C 61.02 156.74 65.24 146.15 74.43 143.65
  Z"
/>
<path fill="#ffffff" d="
  M 35.81 162.74
  C 35.90 170.73 48.76 171.70 49.02 162.49
  Q 49.28 152.95 49.24 143.80
  Q 49.24 143.50 49.54 143.50
  L 55.96 143.50
  Q 56.25 143.50 56.25 143.79
  Q 56.26 153.45 56.24 163.50
  C 56.20 178.23 32.92 180.28 29.26 166.99
  Q 28.65 164.79 28.61 161.50
  Q 28.49 152.41 28.50 143.79
  Q 28.50 143.50 28.79 143.50
  L 35.46 143.50
  Q 35.77 143.50 35.77 143.81
  Q 35.70 153.06 35.81 162.74
  Z"
/>
<path fill="#ffffff" d="
  M 106.25 150.30
  L 106.25 156.20
  A 0.30 0.30 0.0 0 0 106.55 156.50
  L 121.20 156.50
  A 0.30 0.30 0.0 0 1 121.50 156.80
  L 121.51 162.70
  A 0.30 0.30 0.0 0 1 121.21 163.00
  L 106.55 163.00
  A 0.30 0.30 0.0 0 0 106.25 163.30
  L 106.25 174.95
  A 0.30 0.30 0.0 0 1 105.95 175.25
  L 99.55 175.25
  A 0.30 0.30 0.0 0 1 99.25 174.95
  L 99.25 143.80
  A 0.30 0.30 0.0 0 1 99.55 143.50
  L 123.20 143.50
  A 0.30 0.30 0.0 0 1 123.50 143.80
  L 123.51 149.70
  A 0.30 0.30 0.0 0 1 123.21 150.00
  L 106.55 150.00
  A 0.30 0.30 0.0 0 0 106.25 150.30
  Z"
/>
</svg>
